<svg width="334" height="334" viewBox="0 0 334 334" fill="none" xmlns="http://www.w3.org/2000/svg">
<g filter="url(#filter0_d_1_229)">
<circle cx="167" cy="167" r="153" fill="white"/>
</g>
<g filter="url(#filter1_d_1_229)">
<path d="M119.164 159.394C119.164 162.08 119.453 164.257 119.958 165.854C120.536 167.451 121.258 169.192 122.268 171.08C122.629 171.66 122.773 172.241 122.773 172.749C122.773 173.475 122.34 174.2 121.402 174.926L116.854 177.975C116.205 178.41 115.555 178.628 114.977 178.628C114.256 178.628 113.534 178.265 112.812 177.612C111.801 176.523 110.935 175.362 110.213 174.2C109.491 172.967 108.769 171.588 107.975 169.918C102.345 176.596 95.2708 179.934 86.7529 179.934C80.6894 179.934 75.8529 178.192 72.3158 174.709C68.7788 171.225 66.9741 166.58 66.9741 160.773C66.9741 154.604 69.1397 149.596 73.543 145.822C77.9463 142.048 83.7933 140.161 91.2284 140.161C93.6827 140.161 96.2092 140.379 98.8801 140.741C101.551 141.104 104.294 141.685 107.181 142.338V137.04C107.181 131.524 106.026 127.677 103.789 125.427C101.479 123.177 97.5807 122.089 92.0225 122.089C89.496 122.089 86.8973 122.379 84.2264 123.032C81.5556 123.685 78.9569 124.484 76.4304 125.5C75.2754 126.008 74.4092 126.298 73.9039 126.443C73.3986 126.588 73.0377 126.661 72.749 126.661C71.7384 126.661 71.2331 125.935 71.2331 124.411V120.855C71.2331 119.693 71.3774 118.822 71.7384 118.314C72.0993 117.806 72.749 117.298 73.7596 116.79C76.286 115.484 79.3178 114.395 82.8549 113.524C86.392 112.581 90.1456 112.145 94.1158 112.145C102.706 112.145 108.986 114.105 113.028 118.024C116.999 121.943 119.02 127.895 119.02 135.879V159.394H119.164ZM89.8569 170.426C92.239 170.426 94.6933 169.991 97.292 169.12C99.8907 168.249 102.201 166.652 104.15 164.475C105.305 163.096 106.171 161.572 106.604 159.83C107.037 158.088 107.326 155.983 107.326 153.515V150.467C105.232 149.959 102.995 149.524 100.685 149.233C98.3748 148.943 96.137 148.798 93.8993 148.798C89.0629 148.798 85.5258 149.741 83.1437 151.701C80.7615 153.661 79.6066 156.419 79.6066 160.048C79.6066 163.459 80.4728 165.999 82.2774 167.741C84.0099 169.555 86.5364 170.426 89.8569 170.426ZM147.822 178.265C146.522 178.265 145.656 178.047 145.079 177.539C144.501 177.104 143.996 176.088 143.563 174.709L126.599 118.605C126.166 117.153 125.95 116.21 125.95 115.702C125.95 114.54 126.527 113.887 127.682 113.887H134.756C136.128 113.887 137.066 114.105 137.571 114.613C138.149 115.048 138.582 116.064 139.015 117.443L151.142 165.491L162.403 117.443C162.764 115.992 163.197 115.048 163.775 114.613C164.352 114.177 165.363 113.887 166.662 113.887H172.437C173.809 113.887 174.747 114.105 175.324 114.613C175.902 115.048 176.407 116.064 176.696 117.443L188.101 166.072L200.589 117.443C201.022 115.992 201.528 115.048 202.033 114.613C202.611 114.177 203.549 113.887 204.848 113.887H211.562C212.717 113.887 213.366 114.468 213.366 115.702C213.366 116.064 213.294 116.427 213.222 116.863C213.15 117.298 213.005 117.879 212.717 118.677L195.32 174.781C194.887 176.233 194.381 177.176 193.804 177.612C193.226 178.047 192.288 178.337 191.061 178.337H184.853C183.481 178.337 182.543 178.12 181.966 177.612C181.388 177.104 180.883 176.16 180.594 174.709L169.405 127.895L158.289 174.636C157.928 176.088 157.495 177.031 156.917 177.539C156.34 178.047 155.329 178.265 154.03 178.265H147.822ZM240.58 180.225C236.826 180.225 233.073 179.789 229.464 178.918C225.854 178.047 223.039 177.104 221.162 176.015C220.007 175.362 219.213 174.636 218.924 173.983C218.636 173.33 218.491 172.604 218.491 171.951V168.249C218.491 166.725 219.069 165.999 220.152 165.999C220.585 165.999 221.018 166.072 221.451 166.217C221.884 166.362 222.534 166.652 223.256 166.943C225.71 168.031 228.381 168.902 231.196 169.483C234.083 170.063 236.899 170.354 239.786 170.354C244.334 170.354 247.871 169.555 250.325 167.959C252.779 166.362 254.079 164.039 254.079 161.064C254.079 159.031 253.429 157.362 252.13 155.983C250.83 154.604 248.376 153.37 244.839 152.209L234.372 148.943C229.103 147.274 225.205 144.806 222.822 141.54C220.44 138.346 219.213 134.79 219.213 131.016C219.213 127.967 219.863 125.282 221.162 122.959C222.462 120.637 224.194 118.605 226.36 117.008C228.525 115.339 230.979 114.105 233.867 113.234C236.754 112.363 239.786 112 242.962 112C244.55 112 246.211 112.073 247.799 112.29C249.459 112.508 250.975 112.798 252.491 113.089C253.934 113.452 255.306 113.814 256.605 114.25C257.905 114.685 258.915 115.121 259.637 115.556C260.648 116.137 261.369 116.718 261.803 117.371C262.236 117.952 262.452 118.75 262.452 119.766V123.177C262.452 124.701 261.875 125.5 260.792 125.5C260.215 125.5 259.276 125.209 258.049 124.629C253.934 122.742 249.315 121.798 244.189 121.798C240.075 121.798 236.826 122.451 234.589 123.83C232.351 125.209 231.196 127.314 231.196 130.29C231.196 132.322 231.918 134.064 233.362 135.443C234.805 136.822 237.476 138.201 241.302 139.435L251.552 142.701C256.75 144.37 260.503 146.693 262.741 149.669C264.979 152.644 266.062 156.056 266.062 159.83C266.062 162.951 265.412 165.781 264.185 168.249C262.885 170.717 261.153 172.894 258.915 174.636C256.677 176.45 254.007 177.757 250.903 178.7C247.654 179.717 244.262 180.225 240.58 180.225Z" fill="#252F3E"/>
<path d="M254.223 215.498C230.474 233.135 195.969 242.498 166.301 242.498C124.722 242.498 87.2582 227.038 58.9615 201.345C56.7238 199.313 58.745 196.555 61.4158 198.152C92.0225 216.006 129.775 226.821 168.828 226.821C195.175 226.821 224.122 221.304 250.758 209.982C254.728 208.168 258.121 212.595 254.223 215.498ZM264.113 204.176C261.081 200.256 244.045 202.289 236.321 203.232C234.011 203.523 233.65 201.49 235.744 199.966C249.314 190.386 271.62 193.144 274.218 196.337C276.817 199.603 273.497 222.03 260.792 232.772C258.843 234.441 256.966 233.57 257.832 231.393C260.72 224.208 267.144 208.022 264.113 204.176Z" fill="#FF9900"/>
</g>
<defs>
<filter id="filter0_d_1_229" x="0" y="0" width="334" height="334" filterUnits="userSpaceOnUse" color-interpolation-filters="sRGB">
<feFlood flood-opacity="0" result="BackgroundImageFix"/>
<feColorMatrix in="SourceAlpha" type="matrix" values="0 0 0 0 0 0 0 0 0 0 0 0 0 0 0 0 0 0 127 0" result="hardAlpha"/>
<feOffset/>
<feGaussianBlur stdDeviation="7"/>
<feComposite in2="hardAlpha" operator="out"/>
<feColorMatrix type="matrix" values="0 0 0 0 0 0 0 0 0 0 0 0 0 0 0 0 0 0 0.25 0"/>
<feBlend mode="normal" in2="BackgroundImageFix" result="effect1_dropShadow_1_229"/>
<feBlend mode="normal" in="SourceGraphic" in2="effect1_dropShadow_1_229" result="shape"/>
</filter>
<filter id="filter1_d_1_229" x="54" y="112" width="225.041" height="138.498" filterUnits="userSpaceOnUse" color-interpolation-filters="sRGB">
<feFlood flood-opacity="0" result="BackgroundImageFix"/>
<feColorMatrix in="SourceAlpha" type="matrix" values="0 0 0 0 0 0 0 0 0 0 0 0 0 0 0 0 0 0 127 0" result="hardAlpha"/>
<feOffset dy="4"/>
<feGaussianBlur stdDeviation="2"/>
<feComposite in2="hardAlpha" operator="out"/>
<feColorMatrix type="matrix" values="0 0 0 0 0 0 0 0 0 0 0 0 0 0 0 0 0 0 0.25 0"/>
<feBlend mode="normal" in2="BackgroundImageFix" result="effect1_dropShadow_1_229"/>
<feBlend mode="normal" in="SourceGraphic" in2="effect1_dropShadow_1_229" result="shape"/>
</filter>
</defs>
</svg>
