<svg width="334" height="334" viewBox="0 0 334 334" fill="none" xmlns="http://www.w3.org/2000/svg">
<g filter="url(#filter0_d_1_224)">
<circle cx="167" cy="167" r="153" fill="white"/>
</g>
<g clip-path="url(#clip0_1_224)" filter="url(#filter1_d_1_224)">
<mask id="mask0_1_224" style="mask-type:luminance" maskUnits="userSpaceOnUse" x="54" y="54" width="225" height="225">
<path d="M166.5 54C228.682 54 279 104.318 279 166.5C279 228.682 228.682 279 166.5 279C104.318 279 54 228.682 54 166.5C54 104.318 104.318 54 166.5 54Z" fill="white"/>
</mask>
<g mask="url(#mask0_1_224)">
<g filter="url(#filter2_d_1_224)">
<path d="M166.5 56.6367C227.224 56.6367 276.363 105.776 276.363 166.5C276.363 227.224 227.224 276.363 166.5 276.363C105.776 276.363 56.6367 227.224 56.6367 166.5C56.6367 105.776 105.776 56.6367 166.5 56.6367Z" fill="black"/>
</g>
<path d="M166.5 56.6367C227.224 56.6367 276.363 105.776 276.363 166.5C276.363 227.224 227.224 276.363 166.5 276.363C105.776 276.363 56.6367 227.224 56.6367 166.5C56.6367 105.776 105.776 56.6367 166.5 56.6367Z" fill="white"/>
</g>
<mask id="mask1_1_224" style="mask-type:luminance" maskUnits="userSpaceOnUse" x="54" y="54" width="225" height="225">
<path d="M166.5 54C228.682 54 279 104.318 279 166.5C279 228.682 228.682 279 166.5 279C104.318 279 54 228.682 54 166.5C54 104.318 104.318 54 166.5 54Z" fill="white"/>
</mask>
<g mask="url(#mask1_1_224)">
<path d="M166.5 60.4916C225.094 60.4916 272.508 107.906 272.508 166.5C272.508 225.094 225.094 272.508 166.5 272.508C107.906 272.508 60.4916 225.094 60.4916 166.5C60.4916 107.906 107.906 60.4916 166.5 60.4916Z" fill="#5C5C5E"/>
</g>
<mask id="mask2_1_224" style="mask-type:luminance" maskUnits="userSpaceOnUse" x="54" y="54" width="225" height="225">
<path d="M166.5 54C228.682 54 279 104.318 279 166.5C279 228.682 228.682 279 166.5 279C104.318 279 54 228.682 54 166.5C54 104.318 104.318 54 166.5 54Z" fill="white"/>
</mask>
<g mask="url(#mask2_1_224)">
<path d="M222.781 213.144C218.926 225.094 213.144 233.96 205.049 240.513C196.953 247.066 186.16 250.536 172.668 251.692L169.969 233.96C178.836 232.803 185.389 230.876 189.629 227.792C191.171 226.636 194.255 223.166 194.255 223.166L162.26 120.627H188.858L207.361 197.339L227.021 120.627H252.849L222.781 213.144ZM129.879 117.158C136.047 117.158 141.829 117.929 146.455 119.856C151.466 121.784 156.092 124.482 160.718 128.337L149.924 142.985C146.84 140.672 143.756 139.131 141.058 137.974C138.36 136.818 134.89 136.432 131.806 136.432C118.7 136.432 112.147 146.455 112.147 166.885C112.147 177.294 113.689 184.618 117.158 188.858C120.627 193.484 125.253 195.411 131.806 195.411C134.89 195.411 137.974 195.026 140.673 193.869C143.371 192.713 146.455 191.171 150.31 188.858L161.103 204.278C152.237 211.602 142.214 215.071 130.65 215.071C121.398 215.071 113.689 213.144 106.75 209.289C100.197 205.434 94.7998 199.652 91.3304 192.328C87.861 185.003 85.9336 176.523 85.9336 166.5C85.9336 156.863 87.861 147.997 91.3304 140.672C94.7998 132.963 100.197 127.181 106.75 122.94C113.303 119.471 121.013 117.158 129.879 117.158Z" fill="white"/>
</g>
</g>
<defs>
<filter id="filter0_d_1_224" x="0" y="0" width="334" height="334" filterUnits="userSpaceOnUse" color-interpolation-filters="sRGB">
<feFlood flood-opacity="0" result="BackgroundImageFix"/>
<feColorMatrix in="SourceAlpha" type="matrix" values="0 0 0 0 0 0 0 0 0 0 0 0 0 0 0 0 0 0 127 0" result="hardAlpha"/>
<feOffset/>
<feGaussianBlur stdDeviation="7"/>
<feComposite in2="hardAlpha" operator="out"/>
<feColorMatrix type="matrix" values="0 0 0 0 0 0 0 0 0 0 0 0 0 0 0 0 0 0 0.25 0"/>
<feBlend mode="normal" in2="BackgroundImageFix" result="effect1_dropShadow_1_224"/>
<feBlend mode="normal" in="SourceGraphic" in2="effect1_dropShadow_1_224" result="shape"/>
</filter>
<filter id="filter1_d_1_224" x="50" y="50" width="233" height="233" filterUnits="userSpaceOnUse" color-interpolation-filters="sRGB">
<feFlood flood-opacity="0" result="BackgroundImageFix"/>
<feColorMatrix in="SourceAlpha" type="matrix" values="0 0 0 0 0 0 0 0 0 0 0 0 0 0 0 0 0 0 127 0" result="hardAlpha"/>
<feOffset/>
<feGaussianBlur stdDeviation="2"/>
<feComposite in2="hardAlpha" operator="out"/>
<feColorMatrix type="matrix" values="0 0 0 0 0 0 0 0 0 0 0 0 0 0 0 0 0 0 0.25 0"/>
<feBlend mode="normal" in2="BackgroundImageFix" result="effect1_dropShadow_1_224"/>
<feBlend mode="normal" in="SourceGraphic" in2="effect1_dropShadow_1_224" result="shape"/>
</filter>
<filter id="filter2_d_1_224" x="52.6367" y="52.6367" width="227.727" height="227.727" filterUnits="userSpaceOnUse" color-interpolation-filters="sRGB">
<feFlood flood-opacity="0" result="BackgroundImageFix"/>
<feColorMatrix in="SourceAlpha" type="matrix" values="0 0 0 0 0 0 0 0 0 0 0 0 0 0 0 0 0 0 127 0" result="hardAlpha"/>
<feOffset/>
<feGaussianBlur stdDeviation="2"/>
<feColorMatrix type="matrix" values="0 0 0 0 0 0 0 0 0 0 0 0 0 0 0 0 0 0 0.3 0"/>
<feBlend mode="normal" in2="BackgroundImageFix" result="effect1_dropShadow_1_224"/>
<feBlend mode="normal" in="SourceGraphic" in2="effect1_dropShadow_1_224" result="shape"/>
</filter>
<clipPath id="clip0_1_224">
<rect width="225" height="225" fill="white" transform="translate(54 54)"/>
</clipPath>
</defs>
</svg>
