<svg width="334" height="334" viewBox="0 0 334 334" fill="none" xmlns="http://www.w3.org/2000/svg">
<g filter="url(#filter0_d_1_227)">
<circle cx="167" cy="167" r="153" fill="white"/>
</g>
<g filter="url(#filter1_d_1_227)">
<path d="M124.392 139.752L165.752 115.823C166.787 115.224 168.063 115.224 169.098 115.823L210.46 139.752C211.494 140.351 212.133 141.457 212.133 142.655V190.513C212.133 191.711 211.494 192.818 210.46 193.418L169.098 217.347C168.063 217.946 166.787 217.946 165.752 217.347L124.392 193.418C123.357 192.819 122.719 191.711 122.719 190.513V142.655C122.72 141.457 123.358 140.351 124.392 139.752Z" fill="#8080F2"/>
<path d="M274.652 162.662L225.181 76.4185C223.384 73.3002 220.065 71 216.472 71H117.529C113.935 71 110.615 73.3002 108.818 76.4185L59.3477 162.472C57.5508 165.591 57.5508 169.528 59.3477 172.647L108.818 258.184C110.615 261.302 113.935 262.896 117.529 262.896H216.471C220.064 262.896 223.384 261.35 225.181 258.231L274.651 172.554C276.45 169.437 276.45 165.78 274.652 162.662ZM233.688 204.134C233.688 205.402 232.926 206.575 231.829 207.209L168.815 243.642C167.719 244.275 166.346 244.275 165.25 243.642L102.187 207.209C101.091 206.575 100.324 205.403 100.324 204.134V131.269C100.324 130 101.08 128.828 102.176 128.194L165.188 91.7616C166.284 91.1268 167.655 91.1268 168.751 91.7616L231.819 128.194C232.916 128.828 233.688 130 233.688 131.269V204.134Z" fill="#4B32C3"/>
</g>
<defs>
<filter id="filter0_d_1_227" x="0" y="0" width="334" height="334" filterUnits="userSpaceOnUse" color-interpolation-filters="sRGB">
<feFlood flood-opacity="0" result="BackgroundImageFix"/>
<feColorMatrix in="SourceAlpha" type="matrix" values="0 0 0 0 0 0 0 0 0 0 0 0 0 0 0 0 0 0 127 0" result="hardAlpha"/>
<feOffset/>
<feGaussianBlur stdDeviation="7"/>
<feComposite in2="hardAlpha" operator="out"/>
<feColorMatrix type="matrix" values="0 0 0 0 0 0 0 0 0 0 0 0 0 0 0 0 0 0 0.25 0"/>
<feBlend mode="normal" in2="BackgroundImageFix" result="effect1_dropShadow_1_227"/>
<feBlend mode="normal" in="SourceGraphic" in2="effect1_dropShadow_1_227" result="shape"/>
</filter>
<filter id="filter1_d_1_227" x="54" y="71" width="226" height="199.896" filterUnits="userSpaceOnUse" color-interpolation-filters="sRGB">
<feFlood flood-opacity="0" result="BackgroundImageFix"/>
<feColorMatrix in="SourceAlpha" type="matrix" values="0 0 0 0 0 0 0 0 0 0 0 0 0 0 0 0 0 0 127 0" result="hardAlpha"/>
<feOffset dy="4"/>
<feGaussianBlur stdDeviation="2"/>
<feComposite in2="hardAlpha" operator="out"/>
<feColorMatrix type="matrix" values="0 0 0 0 0 0 0 0 0 0 0 0 0 0 0 0 0 0 0.25 0"/>
<feBlend mode="normal" in2="BackgroundImageFix" result="effect1_dropShadow_1_227"/>
<feBlend mode="normal" in="SourceGraphic" in2="effect1_dropShadow_1_227" result="shape"/>
</filter>
</defs>
</svg>
