<svg width="334" height="334" viewBox="0 0 334 334" fill="none" xmlns="http://www.w3.org/2000/svg">
<g filter="url(#filter0_d_1_221)">
<circle cx="167" cy="167" r="153" fill="white"/>
</g>
<g filter="url(#filter1_d_1_221)">
<path d="M271.888 157.289L176.706 62.1118C171.229 56.6294 162.338 56.6294 156.853 62.1118L137.089 81.8767L162.161 106.949C167.988 104.981 174.668 106.301 179.313 110.946C183.98 115.62 185.291 122.359 183.274 128.205L207.438 152.368C213.284 150.354 220.029 151.658 224.698 156.334C231.223 162.857 231.223 173.43 224.698 179.957C218.17 186.485 207.598 186.485 201.068 179.957C196.16 175.044 194.947 167.835 197.432 161.788L174.898 139.253L174.895 198.555C176.486 199.344 177.988 200.394 179.313 201.715C185.839 208.238 185.839 218.81 179.313 225.343C172.786 231.868 162.209 231.868 155.691 225.343C149.165 218.81 149.165 208.238 155.691 201.715C157.303 200.105 159.169 198.887 161.159 198.069V138.215C159.169 137.402 157.305 136.191 155.691 134.57C150.747 129.633 149.558 122.378 152.091 116.307L127.377 91.5881L62.1135 156.848C56.6288 162.336 56.6288 171.227 62.1135 176.709L157.296 271.888C162.776 277.371 171.664 277.371 177.151 271.888L271.888 177.152C277.371 171.667 277.371 162.771 271.888 157.289Z" fill="#DE4C36"/>
</g>
<defs>
<filter id="filter0_d_1_221" x="0" y="0" width="334" height="334" filterUnits="userSpaceOnUse" color-interpolation-filters="sRGB">
<feFlood flood-opacity="0" result="BackgroundImageFix"/>
<feColorMatrix in="SourceAlpha" type="matrix" values="0 0 0 0 0 0 0 0 0 0 0 0 0 0 0 0 0 0 127 0" result="hardAlpha"/>
<feOffset/>
<feGaussianBlur stdDeviation="7"/>
<feComposite in2="hardAlpha" operator="out"/>
<feColorMatrix type="matrix" values="0 0 0 0 0 0 0 0 0 0 0 0 0 0 0 0 0 0 0.25 0"/>
<feBlend mode="normal" in2="BackgroundImageFix" result="effect1_dropShadow_1_221"/>
<feBlend mode="normal" in="SourceGraphic" in2="effect1_dropShadow_1_221" result="shape"/>
</filter>
<filter id="filter1_d_1_221" x="54" y="58" width="226" height="226" filterUnits="userSpaceOnUse" color-interpolation-filters="sRGB">
<feFlood flood-opacity="0" result="BackgroundImageFix"/>
<feColorMatrix in="SourceAlpha" type="matrix" values="0 0 0 0 0 0 0 0 0 0 0 0 0 0 0 0 0 0 127 0" result="hardAlpha"/>
<feOffset dy="4"/>
<feGaussianBlur stdDeviation="2"/>
<feComposite in2="hardAlpha" operator="out"/>
<feColorMatrix type="matrix" values="0 0 0 0 0 0 0 0 0 0 0 0 0 0 0 0 0 0 0.25 0"/>
<feBlend mode="normal" in2="BackgroundImageFix" result="effect1_dropShadow_1_221"/>
<feBlend mode="normal" in="SourceGraphic" in2="effect1_dropShadow_1_221" result="shape"/>
</filter>
</defs>
</svg>
