<svg width="334" height="334" viewBox="0 0 334 334" fill="none" xmlns="http://www.w3.org/2000/svg">
<g filter="url(#filter0_d_1_233)">
<circle cx="167" cy="167" r="153" fill="white"/>
</g>
<g filter="url(#filter1_d_1_233)">
<path d="M242.936 165.533C242.936 160.793 241.053 156.248 237.702 152.897C234.351 149.546 229.805 147.663 225.066 147.663C224.438 147.662 223.811 147.694 223.187 147.759L247.736 75.3612H143.418L167.932 147.697C167.576 147.697 167.212 147.663 166.849 147.663C162.582 147.658 158.453 149.18 155.211 151.955C151.969 154.729 149.826 158.572 149.171 162.789C148.515 167.005 149.391 171.317 151.638 174.945C153.886 178.572 157.357 181.275 161.425 182.566C157.624 189.111 152.891 195.068 147.375 200.25C140.194 207.114 131.664 212.408 122.325 215.795C117.094 213.316 113.002 208.938 110.881 203.55C108.76 198.163 108.77 192.17 110.908 186.79C111.436 185.555 111.971 184.307 112.479 183.059C116.463 182.121 120.005 179.844 122.512 176.608C125.019 173.372 126.34 169.374 126.253 165.282C126.167 161.189 124.679 157.251 122.037 154.123C119.396 150.996 115.761 148.87 111.741 148.101C107.721 147.332 103.558 147.965 99.9486 149.896C96.3392 151.827 93.5017 154.938 91.9104 158.709C90.319 162.48 90.0701 166.684 91.2053 170.616C92.3404 174.549 94.7909 177.973 98.1472 180.317C92.4431 190.659 88.0899 201.691 85.194 213.142C82.7666 227.782 85.194 243.313 97.8455 252.097C127.331 272.538 159.347 239.425 193.098 231.107C205.331 228.09 218.757 228.577 229.53 222.337C233.422 220.12 236.778 217.074 239.36 213.415C241.943 209.755 243.688 205.572 244.472 201.162C245.188 196.96 245.053 192.657 244.075 188.508C243.096 184.36 241.293 180.45 238.773 177.011C241.462 173.799 242.933 169.742 242.929 165.553L242.936 165.533ZM184.725 165.629V165.567C184.731 162.492 183.94 159.467 182.431 156.788C180.922 154.109 178.745 151.865 176.113 150.275L195.615 110.771L215.157 150.639C212.706 152.268 210.696 154.479 209.306 157.074C207.917 159.669 207.192 162.568 207.196 165.512V165.903L184.725 165.629Z" fill="#C63D14"/>
<path d="M247.304 165.533C247.297 160.351 245.483 155.334 242.175 151.347C238.867 147.359 234.271 144.649 229.18 143.686L253.825 71H137.336L162.021 143.83C157.712 144.793 153.787 147.018 150.747 150.222C147.708 153.425 145.692 157.461 144.956 161.816C144.22 166.17 144.798 170.645 146.616 174.669C148.435 178.693 151.41 182.084 155.164 184.41C152.063 189.017 148.457 193.263 144.412 197.068C138.152 203.058 130.794 207.785 122.744 210.988C118.966 208.795 116.102 205.317 114.674 201.188C113.247 197.06 113.351 192.555 114.968 188.497L115.242 187.859L115.749 186.659C120.32 185.075 124.249 182.044 126.943 178.027C129.636 174.009 130.947 169.223 130.677 164.393C130.407 159.564 128.571 154.954 125.446 151.262C122.321 147.569 118.079 144.996 113.36 143.93C108.642 142.865 103.705 143.367 99.2973 145.359C94.8894 147.35 91.2507 150.724 88.932 154.97C86.6134 159.215 85.7413 164.1 86.4476 168.885C87.1539 173.67 89.4003 178.095 92.8466 181.489C92.106 183.073 91.3243 184.678 90.522 186.33C86.0761 194.505 82.8422 203.282 80.922 212.387C77.7335 231.587 82.8763 246.968 95.3974 255.642C102.119 260.449 110.181 263.023 118.444 263C133.064 263 147.855 255.656 162.33 248.47C172.444 242.969 183.114 238.56 194.161 235.318C198.117 234.344 202.191 233.754 206.504 233.13C215.291 232.428 223.859 230.034 231.738 226.081C236.181 223.543 240.012 220.059 242.959 215.876C245.906 211.693 247.897 206.913 248.792 201.875C250.249 193.316 248.566 184.518 244.053 177.1C246.188 173.617 247.315 169.611 247.31 165.526L247.304 165.533ZM238.574 165.533C238.574 168.204 237.782 170.816 236.298 173.037C234.814 175.259 232.704 176.99 230.235 178.013C227.767 179.035 225.051 179.303 222.431 178.781C219.81 178.26 217.403 176.974 215.514 175.084C213.625 173.195 212.338 170.788 211.817 168.168C211.296 165.547 211.563 162.831 212.586 160.363C213.608 157.895 215.339 155.785 217.561 154.301C219.782 152.816 222.394 152.024 225.066 152.024C228.647 152.028 232.081 153.452 234.614 155.985C237.146 158.517 238.571 161.951 238.574 165.533ZM241.64 79.7291L219.875 143.912C218.943 144.137 218.027 144.424 217.132 144.769L195.635 100.883L174.069 144.509C173.13 144.183 172.171 143.922 171.196 143.727L149.507 79.7291H241.64ZM166.849 152.024C169.521 152.024 172.132 152.816 174.354 154.301C176.575 155.785 178.307 157.895 179.329 160.363C180.352 162.831 180.619 165.547 180.098 168.168C179.577 170.788 178.29 173.195 176.401 175.084C174.512 176.974 172.105 178.26 169.484 178.781C166.864 179.303 164.148 179.035 161.679 178.013C159.211 176.99 157.101 175.259 155.617 173.037C154.133 170.816 153.34 168.204 153.34 165.533C153.344 161.951 154.768 158.517 157.301 155.985C159.833 153.452 163.267 152.028 166.849 152.024ZM108.412 152.154C111.085 152.156 113.698 152.95 115.919 154.437C118.14 155.923 119.871 158.036 120.891 160.506C121.911 162.976 122.176 165.694 121.651 168.315C121.126 170.936 119.836 173.342 117.943 175.229C116.05 177.116 113.64 178.4 111.017 178.916C108.395 179.433 105.678 179.16 103.211 178.133C100.743 177.105 98.6362 175.368 97.1563 173.142C95.6764 170.916 94.8901 168.301 94.8969 165.629C94.9005 162.047 96.3249 158.613 98.8575 156.081C101.39 153.548 104.824 152.124 108.405 152.12L108.412 152.154ZM240.186 200.387C239.508 204.167 238.008 207.752 235.79 210.887C233.573 214.023 230.694 216.632 227.356 218.531C220.431 221.894 212.932 223.916 205.256 224.49C200.922 225.114 196.444 225.759 192.063 226.842C180.398 230.22 169.133 234.848 158.463 240.646C136.767 251.418 118.005 260.723 100.369 248.483C87.4295 239.514 88.026 222.92 89.5346 213.827C91.3099 205.553 94.2707 197.578 98.3254 190.15C98.9563 188.854 99.5734 187.578 100.177 186.316C102.019 187.053 103.952 187.537 105.923 187.756C104.178 193.921 104.666 200.504 107.3 206.343C109.935 212.183 114.547 216.905 120.323 219.676L122.003 220.54L123.779 219.91C133.686 216.334 142.736 210.729 150.351 203.452C155.38 198.721 159.799 193.379 163.503 187.551C168.242 188.272 173.087 187.441 177.315 185.182C181.543 182.924 184.928 179.359 186.964 175.019C189 170.679 189.578 165.797 188.613 161.102C187.647 156.407 185.189 152.15 181.605 148.966L195.58 120.707L209.699 149.507C205.682 153.379 203.268 158.62 202.938 164.189C202.608 169.758 204.385 175.248 207.916 179.567C211.448 183.887 216.475 186.719 221.999 187.502C227.522 188.285 233.139 186.961 237.731 183.793C240.277 188.933 241.13 194.747 240.165 200.401L240.186 200.387Z" fill="white"/>
</g>
<defs>
<filter id="filter0_d_1_233" x="0" y="0" width="334" height="334" filterUnits="userSpaceOnUse" color-interpolation-filters="sRGB">
<feFlood flood-opacity="0" result="BackgroundImageFix"/>
<feColorMatrix in="SourceAlpha" type="matrix" values="0 0 0 0 0 0 0 0 0 0 0 0 0 0 0 0 0 0 127 0" result="hardAlpha"/>
<feOffset/>
<feGaussianBlur stdDeviation="7"/>
<feComposite in2="hardAlpha" operator="out"/>
<feColorMatrix type="matrix" values="0 0 0 0 0 0 0 0 0 0 0 0 0 0 0 0 0 0 0.25 0"/>
<feBlend mode="normal" in2="BackgroundImageFix" result="effect1_dropShadow_1_233"/>
<feBlend mode="normal" in="SourceGraphic" in2="effect1_dropShadow_1_233" result="shape"/>
</filter>
<filter id="filter1_d_1_233" x="76" y="71" width="181.825" height="200" filterUnits="userSpaceOnUse" color-interpolation-filters="sRGB">
<feFlood flood-opacity="0" result="BackgroundImageFix"/>
<feColorMatrix in="SourceAlpha" type="matrix" values="0 0 0 0 0 0 0 0 0 0 0 0 0 0 0 0 0 0 127 0" result="hardAlpha"/>
<feOffset dy="4"/>
<feGaussianBlur stdDeviation="2"/>
<feComposite in2="hardAlpha" operator="out"/>
<feColorMatrix type="matrix" values="0 0 0 0 0 0 0 0 0 0 0 0 0 0 0 0 0 0 0.25 0"/>
<feBlend mode="normal" in2="BackgroundImageFix" result="effect1_dropShadow_1_233"/>
<feBlend mode="normal" in="SourceGraphic" in2="effect1_dropShadow_1_233" result="shape"/>
</filter>
</defs>
</svg>
