<svg width="334" height="334" viewBox="0 0 334 334" fill="none" xmlns="http://www.w3.org/2000/svg">
<g filter="url(#filter0_d_1_230)">
<circle cx="167" cy="167" r="153" fill="white"/>
</g>
<g filter="url(#filter1_d_1_230)">
<g clip-path="url(#clip0_1_230)">
<path d="M73 73H261V261H73V73Z" fill="#F7DF1E"/>
<path d="M122.432 230.107L136.819 221.4C139.595 226.321 142.12 230.485 148.176 230.485C153.981 230.485 157.641 228.214 157.641 219.381V159.31H175.308V219.63C175.308 237.929 164.582 246.258 148.933 246.258C134.8 246.258 126.596 238.938 122.432 230.105" fill="black"/>
<path d="M184.905 228.213L199.29 219.884C203.077 226.069 207.999 230.611 216.706 230.611C224.026 230.611 228.694 226.951 228.694 221.903C228.694 215.846 223.899 213.7 215.822 210.168L211.407 208.274C198.66 202.848 190.204 196.034 190.204 181.647C190.204 168.396 200.3 158.3 216.075 158.3C227.307 158.3 235.383 162.213 241.188 172.435L227.432 181.268C224.403 175.842 221.123 173.697 216.075 173.697C210.901 173.697 207.62 176.978 207.62 181.268C207.62 186.568 210.901 188.714 218.472 191.996L222.889 193.888C237.906 200.325 246.362 206.886 246.362 221.651C246.362 237.553 233.869 246.26 217.085 246.26C200.679 246.26 190.078 238.436 184.905 228.213Z" fill="black"/>
</g>
</g>
<defs>
<filter id="filter0_d_1_230" x="0" y="0" width="334" height="334" filterUnits="userSpaceOnUse" color-interpolation-filters="sRGB">
<feFlood flood-opacity="0" result="BackgroundImageFix"/>
<feColorMatrix in="SourceAlpha" type="matrix" values="0 0 0 0 0 0 0 0 0 0 0 0 0 0 0 0 0 0 127 0" result="hardAlpha"/>
<feOffset/>
<feGaussianBlur stdDeviation="7"/>
<feComposite in2="hardAlpha" operator="out"/>
<feColorMatrix type="matrix" values="0 0 0 0 0 0 0 0 0 0 0 0 0 0 0 0 0 0 0.25 0"/>
<feBlend mode="normal" in2="BackgroundImageFix" result="effect1_dropShadow_1_230"/>
<feBlend mode="normal" in="SourceGraphic" in2="effect1_dropShadow_1_230" result="shape"/>
</filter>
<filter id="filter1_d_1_230" x="69" y="73" width="196" height="196" filterUnits="userSpaceOnUse" color-interpolation-filters="sRGB">
<feFlood flood-opacity="0" result="BackgroundImageFix"/>
<feColorMatrix in="SourceAlpha" type="matrix" values="0 0 0 0 0 0 0 0 0 0 0 0 0 0 0 0 0 0 127 0" result="hardAlpha"/>
<feOffset dy="4"/>
<feGaussianBlur stdDeviation="2"/>
<feComposite in2="hardAlpha" operator="out"/>
<feColorMatrix type="matrix" values="0 0 0 0 0 0 0 0 0 0 0 0 0 0 0 0 0 0 0.25 0"/>
<feBlend mode="normal" in2="BackgroundImageFix" result="effect1_dropShadow_1_230"/>
<feBlend mode="normal" in="SourceGraphic" in2="effect1_dropShadow_1_230" result="shape"/>
</filter>
<clipPath id="clip0_1_230">
<rect x="73" y="73" width="188" height="188" rx="10" fill="white"/>
</clipPath>
</defs>
</svg>
