<svg width="334" height="334" viewBox="0 0 334 334" fill="none" xmlns="http://www.w3.org/2000/svg">
<g filter="url(#filter0_d_1_235)">
<circle cx="167" cy="167" r="153" fill="white"/>
</g>
<g filter="url(#filter1_d_1_235)">
<g filter="url(#filter2_d_1_235)">
<path d="M145.5 127.025L146 138.813L138 154.188L125.5 179.3L123 200.313L132 230.038L152.5 241.825H183.5L212.5 219.275L225.5 183.913L195.5 146.5L187 125.488L145.5 127.025Z" fill="#ECEFF1"/>
<path d="M216.5 156.238C208.5 144.45 202 137.275 198.5 122.413C195 107.55 199.5 111.65 196.5 98.8375C195 92.175 192.5 87.5625 190 83.975C187 80.3875 183.5 78.3375 181.5 77.825C177 75.2625 166.5 71.1625 153.5 78.3375C140 85.5125 141.5 100.888 144 132.15C144 134.2 143.5 136.763 142.5 138.813C140.5 143.425 137 147.525 134 151.113C130.5 156.238 127 161.363 124.5 167C118.5 178.788 113 193.65 114.5 199.288C117 198.775 148.5 247.975 148.5 249C150.5 248.488 159 248.488 166.5 248.488C177 247.975 183 247.463 191.5 249.513C191.5 247.975 191 246.438 191 244.9C191 241.825 191.5 239.263 192 235.675C192.5 233.113 193 230.55 193.5 227.475C188.5 232.088 179.5 237.213 171 238.75C163.5 240.288 151 237.725 145 230.038C145.5 230.038 146.5 230.038 147 229.525C148.5 229.013 150 228.5 150.5 227.475C152 224.913 151 222.35 150 220.813C149 219.275 141.5 213.638 138 210.563C134.5 207.488 132.5 205.95 130.5 203.9C130.5 203.9 127.5 200.825 126.5 199.8C125.5 198.775 125 197.75 124.5 197.238C123.5 194.675 123 191.6 123.5 187.5C124 181.863 126 177.25 128.5 172.125C129.5 170.075 132 165.975 132 165.975C132 165.975 123.5 187.5 128 194.163C128 194.163 128.5 187.5 130.5 180.838C132 176.225 134.5 169.563 137.5 165.975C140.5 162.388 148 149.063 148.5 140.863C148.5 137.275 149 133.688 149 131.125C147 129.075 182 123.95 184 129.588C184.5 131.638 191.5 150.088 195.5 159.825C197.5 164.438 200 168.538 201.5 173.663C203 179.3 204 186.988 204 194.675C204 196.213 204 198.775 203.5 201.338C204.5 201.338 224 179.813 201 161.875C201 161.875 215 168.538 215.5 181.863C216 192.625 211.5 201.338 210.5 202.875C211 202.875 221 207.488 221.5 207.488C223.5 207.488 227.5 205.95 227.5 205.95C228 204.413 229.5 200.313 229.5 198.775C233 186.988 224.5 168.025 216.5 156.238Z" fill="#263238"/>
<path d="M153 122.412C156.59 122.412 159.5 117.823 159.5 112.162C159.5 106.502 156.59 101.912 153 101.912C149.41 101.912 146.5 106.502 146.5 112.162C146.5 117.823 149.41 122.412 153 122.412Z" fill="#ECEFF1"/>
<path d="M175.5 123.438C180.194 123.438 184 118.16 184 111.65C184 105.14 180.194 99.8625 175.5 99.8625C170.806 99.8625 167 105.14 167 111.65C167 118.16 170.806 123.438 175.5 123.438Z" fill="#ECEFF1"/>
<path d="M156.631 112.864C156.216 109.494 154.324 106.964 152.406 107.212C150.489 107.461 149.271 110.394 149.687 113.764C150.102 117.133 151.994 119.664 153.911 119.415C155.829 119.167 157.047 116.234 156.631 112.864Z" fill="#212121"/>
<path d="M175 120.362C177.761 120.362 180 117.38 180 113.7C180 110.02 177.761 107.037 175 107.037C172.239 107.037 170 110.02 170 113.7C170 117.38 172.239 120.362 175 120.362Z" fill="#212121"/>
<path d="M241.5 226.45C239.5 225.425 236 223.888 233 219.275C231.5 216.713 232 209.538 229.5 206.463C228 204.413 226 205.438 225.5 205.438C221 206.463 210.5 213.638 203.5 205.438C202.5 204.412 201 202.875 198.5 202.875C196 202.875 195 203.9 194 205.95C193 208 193 209.537 193 214.662C193 218.762 193 223.375 192.5 226.963C191.5 235.675 190 240.8 190 245.925C190 251.563 191.5 255.15 193.5 256.688C195 258.225 197.5 259.25 203 259.25C208.5 259.25 212 257.2 215.5 253.613C218 251.05 220 250.025 227 244.9C232.5 241.313 241 236.7 242.5 235.162C243.5 234.137 245 233.625 245 230.55C245 227.988 243 226.962 241.5 226.45Z" fill="#FFC107"/>
<path d="M141 227.987C136 219.787 135.5 218.25 132 213.125C129 208 122.5 198.262 118.5 198.262C115.5 198.262 114 199.8 112 201.85C110 203.9 108 208.512 104.5 211.075C101.5 213.637 93 213.125 91 216.2C89 219.275 93 223.887 93 231.575C93 234.65 90.5 236.7 90 238.75C89.5 241.312 89 242.85 90 244.9C92 247.975 94.5 249 111.5 252.587C120.5 254.637 129 259.762 134.5 260.275C140 260.787 149.5 260.275 149.5 246.437C150 238.237 145.5 236.187 141 227.987Z" fill="#FFC107"/>
<path d="M150.5 135.225C147.5 133.175 145 131.125 145 128.05C145 124.975 147 123.95 150 121.388C150.5 120.875 156 115.75 161.5 115.75C167 115.75 173.5 119.337 176 120.362C180.5 121.387 185 122.413 184.5 126C184 131.125 183.5 132.15 178.5 134.713C175 135.738 168.5 141.375 164 141.375C162 141.375 159 141.375 157 140.863C155.5 140.35 153 137.787 150.5 135.225Z" fill="#FFC107"/>
<path d="M149.5 131.125C150.5 132.15 152 133.175 153.5 133.688C154.5 134.2 156 134.713 156 134.713H160.5C163 134.713 166.5 133.688 170 131.638C173.5 130.1 174 129.075 176.5 128.05C179 126.513 181.5 124.975 180.5 124.463C179.5 123.95 178.5 124.463 175 126.513C172 128.563 169.5 129.588 166.5 131.125C165 131.638 163 132.663 161.5 132.663C160 132.663 158.5 132.663 157 132.663C155.5 132.663 154.5 132.15 153 131.638C152 131.125 151.5 130.613 151 130.613C150 130.1 148 128.05 147 127.538C147 127.538 146 127.538 146.5 128.05C148 129.588 148.5 130.1 149.5 131.125Z" fill="#634703"/>
<path d="M164.5 119.85C165 120.875 166 120.875 166.5 121.387C167 121.9 167.5 121.9 167.5 121.9C168 121.387 167.5 120.362 167 120.362C167 119.337 164.5 119.337 164.5 119.85Z" fill="#634703"/>
<path d="M156.5 120.875C156.5 121.388 157.5 121.9 157.5 121.388C158 120.875 158.5 120.363 159 120.363C160 119.85 159.5 119.338 158 119.338C157 119.85 157 120.363 156.5 120.875Z" fill="#634703"/>
<path d="M205 211.587V213.125C206 215.175 208.5 215.687 210.5 215.687C213.5 215.687 216.5 213.637 218 211.587C218 211.075 218.5 210.562 219 210.05C220 208.512 220.5 207.487 221 206.975C221 206.975 220.5 206.462 220.5 205.95C220 204.925 218.5 203.9 216.5 203.387C215 202.875 212.5 202.362 211.5 202.362C207 201.85 204.5 203.387 203 204.925C203 204.925 203.5 204.925 203.5 205.437C204.5 206.462 205 207.487 205 209.025C205.5 210.05 205 210.562 205 211.587Z" fill="#455A64"/>
</g>
</g>
<defs>
<filter id="filter0_d_1_235" x="0" y="0" width="334" height="334" filterUnits="userSpaceOnUse" color-interpolation-filters="sRGB">
<feFlood flood-opacity="0" result="BackgroundImageFix"/>
<feColorMatrix in="SourceAlpha" type="matrix" values="0 0 0 0 0 0 0 0 0 0 0 0 0 0 0 0 0 0 127 0" result="hardAlpha"/>
<feOffset/>
<feGaussianBlur stdDeviation="7"/>
<feComposite in2="hardAlpha" operator="out"/>
<feColorMatrix type="matrix" values="0 0 0 0 0 0 0 0 0 0 0 0 0 0 0 0 0 0 0.25 0"/>
<feBlend mode="normal" in2="BackgroundImageFix" result="effect1_dropShadow_1_235"/>
<feBlend mode="normal" in="SourceGraphic" in2="effect1_dropShadow_1_235" result="shape"/>
</filter>
<filter id="filter1_d_1_235" x="41" y="44" width="248" height="254" filterUnits="userSpaceOnUse" color-interpolation-filters="sRGB">
<feFlood flood-opacity="0" result="BackgroundImageFix"/>
<feColorMatrix in="SourceAlpha" type="matrix" values="0 0 0 0 0 0 0 0 0 0 0 0 0 0 0 0 0 0 127 0" result="hardAlpha"/>
<feOffset dy="4"/>
<feGaussianBlur stdDeviation="2"/>
<feComposite in2="hardAlpha" operator="out"/>
<feColorMatrix type="matrix" values="0 0 0 0 0 0 0 0 0 0 0 0 0 0 0 0 0 0 0.25 0"/>
<feBlend mode="normal" in2="BackgroundImageFix" result="effect1_dropShadow_1_235"/>
<feBlend mode="normal" in="SourceGraphic" in2="effect1_dropShadow_1_235" result="shape"/>
</filter>
<filter id="filter2_d_1_235" x="85.4226" y="74.3143" width="163.577" height="194.082" filterUnits="userSpaceOnUse" color-interpolation-filters="sRGB">
<feFlood flood-opacity="0" result="BackgroundImageFix"/>
<feColorMatrix in="SourceAlpha" type="matrix" values="0 0 0 0 0 0 0 0 0 0 0 0 0 0 0 0 0 0 127 0" result="hardAlpha"/>
<feOffset dy="4"/>
<feGaussianBlur stdDeviation="2"/>
<feComposite in2="hardAlpha" operator="out"/>
<feColorMatrix type="matrix" values="0 0 0 0 0 0 0 0 0 0 0 0 0 0 0 0 0 0 0.25 0"/>
<feBlend mode="normal" in2="BackgroundImageFix" result="effect1_dropShadow_1_235"/>
<feBlend mode="normal" in="SourceGraphic" in2="effect1_dropShadow_1_235" result="shape"/>
</filter>
</defs>
</svg>
