<svg width="334" height="334" viewBox="0 0 334 334" fill="none" xmlns="http://www.w3.org/2000/svg">
<g filter="url(#filter0_d_1_238)">
<circle cx="167" cy="167" r="153" fill="white"/>
</g>
<g filter="url(#filter1_d_1_238)">
<path fill-rule="evenodd" clip-rule="evenodd" d="M201.207 220.426C201.459 219.941 201.701 219.513 201.907 219.07C202.036 218.786 202.236 218.73 202.518 218.737C204.209 218.785 205.9 218.837 207.592 218.853C209.029 218.868 210.469 218.842 211.907 218.825C213.528 218.806 215.148 218.721 216.767 218.767C218.924 218.83 221.025 219.252 222.975 220.211C225.304 221.359 227.066 223.106 228.268 225.409C229.035 226.878 229.479 228.438 229.657 230.094C229.913 232.494 229.745 234.838 228.984 237.133C228.041 239.977 226.25 242.154 223.763 243.785C221.848 245.04 219.749 245.781 217.498 246.205C215.117 246.654 212.728 246.51 210.339 246.517C207.719 246.528 205.1 246.471 202.48 246.441C202.022 246.437 201.956 246.35 202.077 245.913L202.189 245.51C202.444 244.707 202.581 244.671 203.396 244.537C203.96 244.446 204.545 244.234 205.018 243.921C205.292 243.739 205.406 243.264 205.513 242.899C205.606 242.579 205.61 242.229 205.613 241.891C205.651 236.781 205.689 231.671 205.71 226.564C205.715 225.273 205.685 223.979 205.613 222.69C205.562 221.787 205.081 221.169 204.006 220.956C203.171 220.79 202.329 220.662 201.489 220.514L201.207 220.426ZM225.195 232.801C225.082 231.783 225.027 230.757 224.845 229.754C224.409 227.347 223.355 225.25 221.505 223.608C218.513 220.953 214.911 220.544 211.136 220.86C210.276 220.932 210.091 221.226 210.078 222.109C210.057 223.363 210.036 224.616 210.035 225.87C210.029 229.845 210.029 233.82 210.035 237.795C210.036 238.926 210.048 240.057 210.081 241.186C210.117 242.34 210.536 243.318 211.667 243.766C213.45 244.471 215.326 244.555 217.197 244.267C220.186 243.809 222.276 242.067 223.679 239.458C224.789 237.386 225.103 235.126 225.195 232.801ZM232.461 246.337C232.425 245.717 232.679 245.205 232.992 244.735C233.077 244.609 233.369 244.615 233.571 244.574L235.281 244.236C235.885 244.107 236.203 243.701 236.288 243.109C236.345 242.718 236.399 242.323 236.403 241.927C236.44 238.798 236.476 235.669 236.491 232.54C236.506 229.406 236.494 226.273 236.494 223.139L236.481 222.541C236.419 221.533 235.933 221.011 234.933 220.863L232.765 220.534C232.498 220.498 232.401 220.37 232.498 220.132C232.665 219.728 232.825 219.309 233.061 218.944C233.149 218.81 233.445 218.758 233.645 218.762C234.681 218.777 235.717 218.855 236.752 218.853L245.766 218.8C247.503 218.798 249.181 219.101 250.738 219.932C252.453 220.846 253.412 222.259 253.687 224.184C253.974 226.205 253.36 227.91 251.883 229.263C251.276 229.821 250.489 230.185 249.785 230.639L249.555 230.782C250.209 231.022 250.831 231.23 251.437 231.477C253.21 232.204 254.62 233.34 255.366 235.153C255.955 236.584 255.955 238.076 255.606 239.559C255.063 241.881 253.533 243.425 251.544 244.594C249.678 245.69 247.657 246.329 245.505 246.437C243.521 246.537 241.527 246.499 239.538 246.522L238.386 246.528C236.47 246.484 234.553 246.435 232.635 246.384L232.461 246.337ZM240.723 237.251H240.742C240.742 238.232 240.729 239.214 240.747 240.196C240.759 240.832 240.736 241.485 240.874 242.097C241.08 243.012 241.497 243.837 242.524 244.1C243.91 244.456 245.326 244.528 246.729 244.285C248.485 243.979 249.886 243.099 250.655 241.426C251.225 240.183 251.31 238.865 251.114 237.519C250.855 235.747 249.913 234.46 248.348 233.617C247.321 233.064 246.226 232.725 245.059 232.68C243.752 232.631 242.443 232.628 241.136 232.588C240.769 232.577 240.718 232.764 240.72 233.065C240.727 234.459 240.723 235.854 240.723 237.251ZM243.506 230.573C244.221 230.537 245.029 230.527 245.834 230.446C247.374 230.293 248.458 229.518 249.024 228.045C249.312 227.298 249.3 226.528 249.307 225.75C249.33 223.725 248.148 222.066 246.225 221.38C244.74 220.85 243.209 220.841 241.669 220.883C241.045 220.899 240.766 221.172 240.757 221.801L240.665 229.991C240.66 230.316 240.8 230.457 241.117 230.467L243.506 230.573Z" fill="#94795D"/>
<path fill-rule="evenodd" clip-rule="evenodd" d="M86.7321 244.762L86.6232 246.171C85.6085 246.171 84.6729 246.163 83.7373 246.174C81.975 246.192 80.2128 246.22 78.449 246.245L78.2789 246.256C78.0267 246.226 77.5686 246.226 77.5567 246.151C77.4821 245.732 77.5059 245.292 77.5253 244.858C77.5268 244.809 77.6984 244.746 77.7984 244.722L79.1697 244.416C80.0247 244.194 80.3262 243.825 80.3665 242.942C80.4127 241.946 80.459 240.95 80.4634 239.954C80.4769 237.504 80.462 235.057 80.4724 232.607C80.4739 232.034 80.2754 231.607 79.7412 231.374C79.1056 231.094 78.4669 230.819 77.8238 230.56C77.5194 230.437 77.1239 230.37 77.1597 229.961C77.1956 229.545 77.579 229.436 77.9402 229.354C79.4353 229.012 80.932 228.679 82.4227 228.315C82.9032 228.197 83.3628 227.999 83.9373 227.799C83.9671 228.109 84.0223 228.405 84.0163 228.7L83.9283 230.104C83.9268 230.263 84.0089 230.475 84.1268 230.563C84.1984 230.618 84.4386 230.518 84.558 230.425C85.8323 229.455 87.1813 228.618 88.7197 228.13C91.1027 227.374 93.1485 228.075 94.581 230.13C95.0854 230.854 95.0869 230.854 95.7867 230.348C96.9879 229.475 98.2444 228.705 99.65 228.197C102.736 227.083 105.701 228.497 106.774 231.606C107.165 232.734 107.314 233.899 107.311 235.09L107.283 242.996C107.281 243.648 107.497 244.019 108.118 244.222C108.815 244.45 109.537 244.607 110.322 244.813L110.14 246.172C109.248 246.172 108.427 246.166 107.606 246.174C105.601 246.192 103.595 246.202 101.591 246.248C101.242 246.257 101.151 246.171 101.133 245.844C101.075 244.798 101.066 244.8 102.051 244.564L102.382 244.479C103.345 244.216 103.665 243.921 103.673 242.945C103.695 240.142 103.754 237.333 103.612 234.536C103.464 231.635 101.162 230.091 98.3503 230.834C97.4326 231.076 96.6015 231.5 95.8285 232.049C95.5674 232.235 95.5181 232.45 95.539 232.777C95.6181 234.013 95.6673 235.25 95.6778 236.487C95.6957 238.652 95.6688 240.817 95.6778 242.984C95.6808 243.861 95.9807 244.197 96.8477 244.4L98.1354 244.697L98.3742 244.75C98.3921 245.162 98.4085 245.574 98.3891 245.986C98.3772 246.244 98.1772 246.266 97.9534 246.262C96.7014 246.231 95.448 246.189 94.196 246.192C92.6725 246.195 91.1505 246.238 89.6285 246.265H89.2703C89.2703 245.828 89.2494 245.41 89.2853 244.994C89.2927 244.894 89.4688 244.753 89.5897 244.722L91.0908 244.404C91.728 244.247 92.0324 243.921 92.0682 243.273C92.2383 240.274 92.3607 237.273 92.0786 234.275C92.0234 233.693 91.8339 233.102 91.5922 232.567C90.8237 230.869 89.0943 230.16 87.0992 230.67C86.1517 230.912 85.2966 231.346 84.4879 231.894C84.1059 232.153 83.9238 232.496 83.9238 232.931C83.9238 235.923 83.9343 238.914 83.9432 241.905L83.9596 243.058C83.9775 243.862 84.3193 244.286 85.1176 244.459C85.6309 244.576 86.1502 244.655 86.7321 244.762Z" fill="#50382B"/>
<path fill-rule="evenodd" clip-rule="evenodd" d="M176.947 228.105C177.178 229.23 177.174 230.242 176.347 231.009C175.526 231.771 174.488 231.515 173.474 231.345C173.568 231.879 173.673 232.332 173.724 232.792C174.092 236.208 172.622 238.743 169.455 240.192C168.258 240.738 166.988 240.941 165.691 241.045C165.047 241.096 164.483 241.588 164.421 242.118C164.359 242.655 164.696 243.207 165.37 243.369C166.166 243.558 166.995 243.612 167.812 243.706C169.563 243.906 171.335 243.997 173.066 244.31C175.683 244.782 177.144 247.066 176.683 249.696C176.272 252.035 174.917 253.738 173.028 255.044C169.845 257.249 166.354 257.894 162.635 256.768C160.509 256.124 159.009 254.726 158.491 252.464C158.232 251.331 158.508 250.306 159.36 249.537C160.373 248.627 161.476 247.815 162.537 246.956L162.88 246.611L162.486 246.335C161.404 245.822 160.539 245.119 160.203 243.898C160.088 243.485 160.207 243.213 160.558 243.002C161.155 242.642 161.749 242.276 162.338 241.905C162.616 241.732 162.89 241.553 163.149 241.353C163.501 241.084 163.469 240.884 163.049 240.729C162.07 240.368 161.2 239.844 160.525 239.038C159.399 237.694 159.079 236.093 159.172 234.402C159.317 231.761 160.751 230.021 163.081 228.902C165.852 227.572 168.632 227.489 171.457 228.7C172.502 229.148 173.603 229.244 174.723 229.166C175.561 229.106 176.292 228.79 176.947 228.105ZM166.736 247.027C164.656 247.01 164.004 247.266 162.783 248.509C161.416 249.903 161.424 251.835 162.787 253.235C163.823 254.296 165.115 254.793 166.552 254.942C168.231 255.115 169.884 255.045 171.409 254.205C173.036 253.305 173.845 251.634 173.479 249.951C173.176 248.561 172.152 247.926 170.906 247.56C169.489 247.145 168.023 247.066 166.736 247.027ZM162.65 233.735C162.726 234.313 162.758 234.897 162.886 235.463C163.219 236.928 163.856 238.216 165.314 238.868C167.025 239.637 169.211 239.307 169.96 236.904C170.474 235.259 170.411 233.625 169.792 232.019C169.516 231.303 169.071 230.697 168.434 230.252C166.948 229.215 164.266 229.078 163.174 231.37C162.819 232.115 162.68 232.907 162.65 233.735Z" fill="#4F382B"/>
<path fill-rule="evenodd" clip-rule="evenodd" d="M141.655 227.736C141.71 227.992 141.821 228.281 141.824 228.572C141.828 229.126 141.768 229.679 141.737 230.233V230.713L142.206 230.355C143.489 229.299 144.868 228.399 146.473 227.914C149.371 227.041 152.266 228.627 153.211 231.579C153.569 232.701 153.71 233.854 153.724 235.027C153.754 237.633 153.772 240.238 153.799 242.843C153.807 243.779 153.915 243.946 154.8 244.216C155.301 244.37 155.819 244.477 156.337 244.558C156.622 244.603 156.744 244.714 156.729 244.994L156.732 245.25C156.722 246.329 156.647 246.378 155.601 246.375C153.097 246.371 150.595 246.386 148.091 246.407C147.345 246.413 147.343 246.435 147.269 245.698L147.254 245.274C147.3 244.638 147.315 244.644 147.94 244.552C148.361 244.489 148.779 244.392 149.189 244.285C149.611 244.176 149.814 243.864 149.871 243.446C149.899 243.234 149.937 243.022 149.935 242.81C149.899 239.963 149.946 237.113 149.79 234.271C149.665 231.971 147.91 230.601 145.602 230.758C144.469 230.837 143.446 231.215 142.512 231.867C141.895 232.298 141.771 232.92 141.774 233.59C141.786 236.252 141.812 238.914 141.84 241.578C141.846 242.161 141.863 242.745 141.918 243.324C141.976 243.956 142.198 244.212 142.819 244.349C143.413 244.48 144.019 244.556 144.653 244.662L144.707 245.152C144.728 246.293 144.608 246.378 143.499 246.374C140.91 246.363 138.322 246.38 135.734 246.408C135.327 246.414 135.154 246.286 135.164 245.889L135.158 245.719C135.091 244.691 135.121 244.652 136.094 244.485L136.553 244.392C137.607 244.155 137.877 243.874 137.892 242.805C137.941 239.416 137.959 236.028 137.993 232.64C137.998 232.153 137.814 231.776 137.361 231.574C136.725 231.294 136.083 231.027 135.44 230.763C135.085 230.616 134.679 230.524 134.666 230.033C134.657 229.687 135.027 229.381 135.533 229.278C136.549 229.072 137.574 228.9 138.578 228.648C139.578 228.399 140.56 228.065 141.655 227.736Z" fill="#4F372B"/>
<path fill-rule="evenodd" clip-rule="evenodd" d="M197.635 236.588C197.587 239.753 196.765 242.312 194.526 244.233C191.691 246.669 187.268 247.497 183.653 245.675C182.11 244.898 180.976 243.706 180.237 242.158C179.105 239.778 178.821 237.276 179.412 234.712C179.997 232.177 181.532 230.34 183.83 229.151C186.194 227.929 188.683 227.451 191.308 228.093C194.628 228.903 197.014 231.61 197.488 235.057C197.573 235.661 197.606 236.273 197.635 236.588ZM193.789 238.303L193.661 238.288C193.661 237.989 193.677 237.691 193.658 237.392C193.549 235.533 193.131 233.762 192.054 232.206C191.032 230.731 189.639 229.861 187.828 229.734C185.8 229.591 184.096 230.725 183.498 232.796C182.599 235.906 182.904 238.937 184.482 241.785C185.17 243.027 186.189 243.943 187.555 244.425C190.23 245.367 192.603 244.147 193.3 241.408C193.556 240.396 193.631 239.338 193.789 238.303Z" fill="#4F382B"/>
<path fill-rule="evenodd" clip-rule="evenodd" d="M131.91 236.833C131.854 239.104 131.319 241.203 129.916 243.028C128.413 244.983 126.348 246.028 124 246.468C121.223 246.987 118.614 246.516 116.383 244.652C115.324 243.766 114.6 242.63 114.123 241.338C113.339 239.219 113.144 237.048 113.626 234.835C114.141 232.467 115.478 230.657 117.55 229.442C119.947 228.041 122.533 227.416 125.295 228.045C128.846 228.857 130.896 231.171 131.654 234.675C131.807 235.382 131.828 236.114 131.91 236.833ZM128.021 238.331L127.918 238.316V237.889C127.86 235.806 127.452 233.822 126.209 232.091C125.289 230.806 124.056 230 122.476 229.775C119.901 229.408 118.217 230.936 117.659 233.011C116.931 235.723 117.159 238.401 118.286 240.972C118.989 242.575 120.099 243.824 121.805 244.43C124.464 245.374 126.872 244.124 127.545 241.394C127.793 240.396 127.867 239.355 128.021 238.331Z" fill="#4F372B"/>
<path fill-rule="evenodd" clip-rule="evenodd" d="M193.9 121.054C195.73 126.347 197.047 131.75 197.481 137.349C198.018 144.296 197.773 151.196 196.308 158.029L196.12 158.575C195.66 158.577 195.192 158.518 194.743 158.588C190.948 159.185 187.158 159.803 183.366 160.418C179.446 161.054 175.523 161.664 171.611 162.341C170.225 162.58 168.509 162.295 167.949 164.211L167.68 164.302L167.87 152.845L167.677 125.201L169.504 124.887C172.49 124.399 175.476 123.903 178.466 123.427C182.032 122.861 185.602 122.309 189.171 121.757C190.747 121.515 192.324 121.29 193.9 121.054Z" fill="#439934"/>
<path fill-rule="evenodd" clip-rule="evenodd" d="M163.911 197.703C161.985 196.047 159.991 194.464 158.145 192.721C148.21 183.35 140.942 172.318 137.362 159.018C136.376 155.359 135.719 151.639 135.507 147.858C135.358 145.211 135.145 142.541 135.333 139.908C135.83 132.905 136.843 125.969 138.896 119.223L139.009 119.066C139.209 119.332 139.496 119.568 139.597 119.868C141.603 125.771 143.592 131.68 145.572 137.593C151.793 156.173 158.006 174.756 164.238 193.333C164.36 193.695 164.675 193.992 164.902 194.319L163.911 197.703Z" fill="#45A538"/>
<path fill-rule="evenodd" clip-rule="evenodd" d="M193.899 121.054C192.322 121.288 190.745 121.515 189.171 121.757C185.601 122.309 182.032 122.861 178.466 123.427C175.477 123.901 172.491 124.398 169.504 124.887L167.677 125.201L167.662 124.01C167.601 123.031 167.5 122.052 167.486 121.073L167.282 102.34C167.234 98.4325 167.162 94.5244 167.083 90.6179C167.034 88.1901 166.982 85.7608 166.873 83.336C166.813 82.0333 166.603 80.7366 166.519 79.4339C166.47 78.6848 166.536 77.9298 166.552 77.1777C167.483 78.9818 168.395 80.7993 169.352 82.5899C170.863 85.4206 173.273 87.5067 175.444 89.7822C184.018 98.7816 190.105 109.239 193.899 121.054Z" fill="#46A037"/>
<path fill-rule="evenodd" clip-rule="evenodd" d="M167.682 164.302L167.95 164.211C168.51 162.295 170.226 162.58 171.612 162.341C175.525 161.664 179.448 161.054 183.368 160.418C187.159 159.805 190.949 159.187 194.744 158.589C195.193 158.518 195.662 158.577 196.121 158.575C195.413 161.106 194.855 163.692 193.955 166.152C192.933 168.943 191.697 171.668 190.385 174.339C188.425 178.33 185.982 182.055 183.144 185.467C180.956 188.097 178.518 190.53 176.075 192.931C174.723 194.258 173.133 195.34 171.65 196.533L171.265 196.271L169.881 195.089L168.45 191.949C167.464 188.276 166.948 184.536 166.861 180.734L166.888 180.095L167.083 177.329C167.148 176.384 167.234 175.441 167.274 174.497C167.418 171.101 167.546 167.701 167.682 164.302Z" fill="#409433"/>
<path fill-rule="evenodd" clip-rule="evenodd" d="M167.682 164.302C167.547 167.701 167.419 171.102 167.274 174.501C167.234 175.447 167.149 176.39 167.083 177.333L166.212 177.663C164.275 171.962 162.337 166.32 160.442 160.664C157.307 151.307 154.21 141.936 151.08 132.575C148.553 125.022 146.005 117.473 143.443 109.93C143.322 109.578 142.979 109.3 142.74 108.988L148.321 98.7264C148.513 99.0592 148.765 99.3711 148.886 99.7292C151.468 107.369 154.045 115.011 156.599 122.66C159.924 132.613 163.226 142.57 166.548 152.524C166.681 152.921 166.898 153.288 167.107 153.734L167.871 152.845C167.807 156.665 167.744 160.482 167.682 164.302Z" fill="#4FAA41"/>
<path fill-rule="evenodd" clip-rule="evenodd" d="M142.738 108.988C142.979 109.3 143.322 109.578 143.441 109.93C146.003 117.473 148.552 125.02 151.078 132.575C154.209 141.936 157.305 151.307 160.44 160.664C162.335 166.319 164.274 171.96 166.211 177.663L167.082 177.333L166.886 180.1L166.709 180.737C166.406 183.765 166.151 186.798 165.781 189.82C165.596 191.335 165.2 192.821 164.9 194.319C164.675 193.992 164.359 193.695 164.236 193.333C158.003 174.756 151.792 156.173 145.571 137.593C143.59 131.68 141.6 125.771 139.596 119.868C139.494 119.568 139.208 119.332 139.008 119.066L142.738 108.988Z" fill="#4AA73C"/>
<path fill-rule="evenodd" clip-rule="evenodd" d="M167.87 152.845L167.106 153.734C166.897 153.288 166.679 152.921 166.546 152.524C163.225 142.57 159.922 132.613 156.598 122.66C154.043 115.011 151.466 107.369 148.885 99.7292C148.764 99.371 148.512 99.0592 148.319 98.7264L155.221 89.6479C155.438 89.9374 155.749 90.1956 155.861 90.5224C157.777 96.133 159.675 101.748 161.564 107.368C163.328 112.617 165.065 117.873 166.849 123.113C166.969 123.464 167.385 123.712 167.662 124.01L167.677 125.201L167.87 152.845Z" fill="#57AE47"/>
<path fill-rule="evenodd" clip-rule="evenodd" d="M167.662 124.01C167.383 123.713 166.969 123.465 166.849 123.113C165.066 117.873 163.328 112.617 161.564 107.368C159.675 101.748 157.777 96.133 155.861 90.5223C155.749 90.1956 155.438 89.9374 155.221 89.6479C157.465 87.4499 159.639 85.1728 161.974 83.0763C164.05 81.2141 165.718 79.2175 165.796 76.2734L165.96 75.687L166.551 77.1762C166.536 77.9283 166.469 78.6833 166.518 79.4324C166.603 80.7351 166.813 82.0318 166.872 83.3345C166.981 85.7593 167.033 88.1886 167.082 90.6163C167.161 94.5229 167.233 98.4309 167.28 102.339L167.485 121.072C167.5 122.052 167.603 123.031 167.662 124.01Z" fill="#60B24F"/>
<path fill-rule="evenodd" clip-rule="evenodd" d="M164.902 194.317C165.202 192.819 165.597 191.333 165.782 189.819C166.152 186.798 166.407 183.763 166.71 180.736L166.786 180.724L166.861 180.737C166.948 184.539 167.464 188.279 168.45 191.952C168.249 192.218 167.967 192.452 167.859 192.751C167.031 195.087 166.249 197.444 165.417 199.779C165.303 200.098 164.984 200.347 164.762 200.626L163.91 197.702L164.902 194.317Z" fill="#A9AA88"/>
<path fill-rule="evenodd" clip-rule="evenodd" d="M164.762 200.628C164.984 200.347 165.303 200.1 165.417 199.78C166.249 197.445 167.031 195.089 167.859 192.752C167.965 192.454 168.249 192.219 168.45 191.954L169.881 195.093C169.599 195.493 169.208 195.856 169.052 196.302L166.312 204.348C166.199 204.672 165.815 204.898 165.555 205.172L164.762 200.628Z" fill="#B6B598"/>
<path fill-rule="evenodd" clip-rule="evenodd" d="M165.555 205.17C165.814 204.897 166.199 204.67 166.312 204.346L169.052 196.301C169.207 195.854 169.599 195.492 169.881 195.092L171.266 196.272C170.598 196.933 170.226 197.697 170.45 198.663L170.029 200.04C169.838 200.276 169.56 200.482 169.466 200.752C168.51 203.491 167.598 206.246 166.634 208.984C166.512 209.33 166.173 209.603 165.936 209.911L165.555 205.17Z" fill="#C2C1A7"/>
<path fill-rule="evenodd" clip-rule="evenodd" d="M165.934 209.909C166.173 209.602 166.512 209.329 166.633 208.983C167.597 206.244 168.51 203.49 169.465 200.75C169.559 200.48 169.837 200.276 170.028 200.038L169.447 206.359C169.292 206.538 169.068 206.695 168.993 206.903L167.063 212.436C166.927 212.813 166.667 213.15 166.464 213.504C166.284 213.268 165.961 213.04 165.946 212.795C165.89 211.837 165.93 210.872 165.934 209.909Z" fill="#CECDB7"/>
<path fill-rule="evenodd" clip-rule="evenodd" d="M166.466 213.505C166.669 213.152 166.928 212.815 167.064 212.437L168.995 206.904C169.07 206.695 169.295 206.54 169.449 206.361L169.464 210.509L168.074 214.071L166.466 213.505Z" fill="#DBDAC7"/>
<path fill-rule="evenodd" clip-rule="evenodd" d="M168.074 214.071L169.463 210.509L169.75 214.723L168.074 214.071Z" fill="#EBE9DC"/>
<path fill-rule="evenodd" clip-rule="evenodd" d="M170.448 198.663C170.226 197.699 170.596 196.935 171.265 196.272L171.65 196.535L170.448 198.663Z" fill="#CECDB7"/>
<path fill-rule="evenodd" clip-rule="evenodd" d="M166.861 180.739L166.787 180.725L166.71 180.737L166.888 180.1L166.861 180.739Z" fill="#4FAA41"/>
</g>
<defs>
<filter id="filter0_d_1_238" x="0" y="0" width="334" height="334" filterUnits="userSpaceOnUse" color-interpolation-filters="sRGB">
<feFlood flood-opacity="0" result="BackgroundImageFix"/>
<feColorMatrix in="SourceAlpha" type="matrix" values="0 0 0 0 0 0 0 0 0 0 0 0 0 0 0 0 0 0 127 0" result="hardAlpha"/>
<feOffset/>
<feGaussianBlur stdDeviation="7"/>
<feComposite in2="hardAlpha" operator="out"/>
<feColorMatrix type="matrix" values="0 0 0 0 0 0 0 0 0 0 0 0 0 0 0 0 0 0 0.25 0"/>
<feBlend mode="normal" in2="BackgroundImageFix" result="effect1_dropShadow_1_238"/>
<feBlend mode="normal" in="SourceGraphic" in2="effect1_dropShadow_1_238" result="shape"/>
</filter>
<filter id="filter1_d_1_238" x="67" y="71" width="199" height="199" filterUnits="userSpaceOnUse" color-interpolation-filters="sRGB">
<feFlood flood-opacity="0" result="BackgroundImageFix"/>
<feColorMatrix in="SourceAlpha" type="matrix" values="0 0 0 0 0 0 0 0 0 0 0 0 0 0 0 0 0 0 127 0" result="hardAlpha"/>
<feOffset dy="4"/>
<feGaussianBlur stdDeviation="2"/>
<feComposite in2="hardAlpha" operator="out"/>
<feColorMatrix type="matrix" values="0 0 0 0 0 0 0 0 0 0 0 0 0 0 0 0 0 0 0.25 0"/>
<feBlend mode="normal" in2="BackgroundImageFix" result="effect1_dropShadow_1_238"/>
<feBlend mode="normal" in="SourceGraphic" in2="effect1_dropShadow_1_238" result="shape"/>
</filter>
</defs>
</svg>
