<svg width="334" height="334" viewBox="0 0 334 334" fill="none" xmlns="http://www.w3.org/2000/svg">
<g filter="url(#filter0_d_1_237)">
<circle cx="167" cy="167" r="153" fill="white"/>
</g>
<g filter="url(#filter1_d_1_237)">
<path d="M77 180V102L144.443 141V167L99.4809 141V193L77 180Z" fill="#00B0FF"/>
<path d="M144.443 141L211.886 102V180L166.924 206L144.443 193L189.405 167V141L144.443 167V141Z" fill="#0081CB"/>
<path d="M144.443 193V219L189.405 245V219L144.443 193Z" fill="#00B0FF"/>
<path d="M189.405 245L256.847 206V154L234.366 167V193L189.405 219V245ZM234.366 141V115L256.847 102V128L234.366 141Z" fill="#0081CB"/>
</g>
<defs>
<filter id="filter0_d_1_237" x="0" y="0" width="334" height="334" filterUnits="userSpaceOnUse" color-interpolation-filters="sRGB">
<feFlood flood-opacity="0" result="BackgroundImageFix"/>
<feColorMatrix in="SourceAlpha" type="matrix" values="0 0 0 0 0 0 0 0 0 0 0 0 0 0 0 0 0 0 127 0" result="hardAlpha"/>
<feOffset/>
<feGaussianBlur stdDeviation="7"/>
<feComposite in2="hardAlpha" operator="out"/>
<feColorMatrix type="matrix" values="0 0 0 0 0 0 0 0 0 0 0 0 0 0 0 0 0 0 0.25 0"/>
<feBlend mode="normal" in2="BackgroundImageFix" result="effect1_dropShadow_1_237"/>
<feBlend mode="normal" in="SourceGraphic" in2="effect1_dropShadow_1_237" result="shape"/>
</filter>
<filter id="filter1_d_1_237" x="73" y="102" width="187.847" height="151" filterUnits="userSpaceOnUse" color-interpolation-filters="sRGB">
<feFlood flood-opacity="0" result="BackgroundImageFix"/>
<feColorMatrix in="SourceAlpha" type="matrix" values="0 0 0 0 0 0 0 0 0 0 0 0 0 0 0 0 0 0 127 0" result="hardAlpha"/>
<feOffset dy="4"/>
<feGaussianBlur stdDeviation="2"/>
<feComposite in2="hardAlpha" operator="out"/>
<feColorMatrix type="matrix" values="0 0 0 0 0 0 0 0 0 0 0 0 0 0 0 0 0 0 0.25 0"/>
<feBlend mode="normal" in2="BackgroundImageFix" result="effect1_dropShadow_1_237"/>
<feBlend mode="normal" in="SourceGraphic" in2="effect1_dropShadow_1_237" result="shape"/>
</filter>
</defs>
</svg>
