<svg width="334" height="334" viewBox="0 0 334 334" fill="none" xmlns="http://www.w3.org/2000/svg">
<g filter="url(#filter0_d_1_223)">
<circle cx="167" cy="167" r="153" fill="white"/>
</g>
<g filter="url(#filter1_d_1_223)">
<path d="M219.785 262.378C218.974 262.807 219.042 262.943 219.819 262.548C220.071 262.446 220.282 262.303 220.466 262.133C220.466 261.989 220.466 261.989 219.785 262.378ZM221.42 261.492C221.032 261.812 221.032 261.812 221.495 261.601C221.74 261.458 221.958 261.322 221.958 261.281C221.958 261.097 221.849 261.138 221.42 261.492ZM222.483 260.852C222.094 261.172 222.094 261.172 222.558 260.961C222.81 260.818 223.021 260.668 223.021 260.634C223.021 260.464 222.912 260.498 222.483 260.852ZM223.559 260.218C223.171 260.538 223.171 260.538 223.62 260.32C223.872 260.184 224.084 260.041 224.084 260C224.084 259.83 223.975 259.864 223.559 260.218ZM225.01 259.258C224.268 259.755 224.009 260.075 224.69 259.721C225.146 259.442 225.923 258.829 225.787 258.829C225.494 258.938 225.248 259.122 225.003 259.258H225.01ZM159.864 58.0501C159.367 58.0841 157.875 58.2204 156.567 58.3294C125.585 61.136 96.5984 77.8125 78.2257 103.502C68.0686 117.583 61.4743 133.939 58.9878 151.113C58.109 157.108 58 158.879 58 167.006C58 175.126 58.109 176.87 58.9878 182.865C64.9213 223.813 94.0506 258.188 133.535 270.927C140.64 273.196 148.086 274.763 156.567 275.723C159.864 276.077 174.122 276.077 177.419 275.723C192.079 274.088 204.457 270.471 216.706 264.224C218.586 263.27 218.94 263.018 218.688 262.807C212.693 254.898 206.808 246.982 200.915 238.998L183.496 215.475L161.676 183.151C154.401 172.333 147.098 161.542 139.679 150.833C139.604 150.833 139.509 165.201 139.468 182.722C139.393 213.411 139.393 214.658 139.005 215.366C138.617 216.218 137.976 216.926 137.125 217.321C136.45 217.642 135.844 217.71 132.622 217.71H128.936L127.976 217.11C127.376 216.722 126.879 216.184 126.559 215.55L126.096 214.59L126.13 171.87L126.205 129.15L126.879 128.298C127.308 127.774 127.84 127.345 128.439 127.024C129.331 126.595 129.686 126.527 133.371 126.527C137.697 126.527 138.412 126.697 139.55 127.944C148.379 141.105 157.18 154.301 165.839 167.537C180.001 189.009 199.335 218.309 208.838 232.683L226.12 258.835L226.972 258.27C235.276 252.732 242.831 246.137 249.35 238.617C263.084 222.894 271.994 203.554 275.012 182.912C275.891 176.918 276 175.14 276 167.019C276 158.892 275.891 157.155 275.012 151.16C269.079 110.212 239.949 75.837 200.465 63.0912C193.081 60.7545 185.485 59.1605 177.794 58.343C175.73 58.1318 161.642 57.8798 159.871 58.0637L159.864 58.0501ZM204.464 123.973C205.493 124.463 206.269 125.39 206.624 126.452C206.808 127.024 206.842 138.871 206.808 165.555L206.733 203.867L199.995 193.512L193.217 183.151V155.336C193.217 137.304 193.292 127.195 193.387 126.697C193.708 125.56 194.484 124.606 195.52 124.007C196.364 123.577 196.691 123.543 200.063 123.543C203.218 123.543 203.756 123.577 204.464 123.973Z" fill="black"/>
</g>
<defs>
<filter id="filter0_d_1_223" x="0" y="0" width="334" height="334" filterUnits="userSpaceOnUse" color-interpolation-filters="sRGB">
<feFlood flood-opacity="0" result="BackgroundImageFix"/>
<feColorMatrix in="SourceAlpha" type="matrix" values="0 0 0 0 0 0 0 0 0 0 0 0 0 0 0 0 0 0 127 0" result="hardAlpha"/>
<feOffset/>
<feGaussianBlur stdDeviation="7"/>
<feComposite in2="hardAlpha" operator="out"/>
<feColorMatrix type="matrix" values="0 0 0 0 0 0 0 0 0 0 0 0 0 0 0 0 0 0 0.25 0"/>
<feBlend mode="normal" in2="BackgroundImageFix" result="effect1_dropShadow_1_223"/>
<feBlend mode="normal" in="SourceGraphic" in2="effect1_dropShadow_1_223" result="shape"/>
</filter>
<filter id="filter1_d_1_223" x="54" y="58" width="226" height="225.989" filterUnits="userSpaceOnUse" color-interpolation-filters="sRGB">
<feFlood flood-opacity="0" result="BackgroundImageFix"/>
<feColorMatrix in="SourceAlpha" type="matrix" values="0 0 0 0 0 0 0 0 0 0 0 0 0 0 0 0 0 0 127 0" result="hardAlpha"/>
<feOffset dy="4"/>
<feGaussianBlur stdDeviation="2"/>
<feComposite in2="hardAlpha" operator="out"/>
<feColorMatrix type="matrix" values="0 0 0 0 0 0 0 0 0 0 0 0 0 0 0 0 0 0 0.25 0"/>
<feBlend mode="normal" in2="BackgroundImageFix" result="effect1_dropShadow_1_223"/>
<feBlend mode="normal" in="SourceGraphic" in2="effect1_dropShadow_1_223" result="shape"/>
</filter>
</defs>
</svg>
