<svg width="334" height="334" viewBox="0 0 334 334" fill="none" xmlns="http://www.w3.org/2000/svg">
<g filter="url(#filter0_d_1_231)">
<circle cx="167" cy="167" r="153" fill="white"/>
</g>
<g filter="url(#filter1_d_1_231)">
<path d="M165.307 239C164.51 239 163.766 238.787 163.075 238.415L156.005 234.216C154.942 233.631 155.473 233.419 155.792 233.312C157.227 232.834 157.493 232.728 158.982 231.877C159.141 231.771 159.354 231.824 159.513 231.93L164.935 235.173C165.148 235.279 165.414 235.279 165.573 235.173L186.783 222.894C186.995 222.787 187.102 222.575 187.102 222.309V197.804C187.102 197.538 186.995 197.326 186.783 197.219L165.573 184.993C165.36 184.887 165.095 184.887 164.935 184.993L143.726 197.219C143.513 197.326 143.407 197.591 143.407 197.804V222.309C143.407 222.522 143.513 222.787 143.726 222.894L149.52 226.243C152.656 227.837 154.623 225.977 154.623 224.116V199.93C154.623 199.611 154.889 199.292 155.261 199.292H157.972C158.291 199.292 158.61 199.558 158.61 199.93V224.116C158.61 228.316 156.324 230.761 152.337 230.761C151.114 230.761 150.158 230.761 147.447 229.432L141.865 226.243C140.483 225.445 139.633 223.957 139.633 222.362V197.857C139.633 196.262 140.483 194.774 141.865 193.977L163.075 181.698C164.404 180.953 166.211 180.953 167.54 181.698L188.75 193.977C190.132 194.774 190.982 196.262 190.982 197.857V222.362C190.982 223.957 190.132 225.445 188.75 226.243L167.54 238.522C166.849 238.841 166.052 239 165.307 239ZM171.846 222.149C162.543 222.149 160.63 217.897 160.63 214.282C160.63 213.963 160.895 213.645 161.267 213.645H164.032C164.351 213.645 164.616 213.857 164.616 214.176C165.042 216.993 166.264 218.375 171.899 218.375C176.364 218.375 178.278 217.365 178.278 214.973C178.278 213.591 177.746 212.581 170.783 211.89C164.988 211.306 161.374 210.03 161.374 205.405C161.374 201.1 164.988 198.548 171.048 198.548C177.852 198.548 181.201 200.887 181.627 205.99C181.627 206.149 181.573 206.309 181.467 206.468C181.361 206.575 181.201 206.681 181.042 206.681H178.278C178.012 206.681 177.746 206.468 177.693 206.203C177.055 203.279 175.407 202.322 171.048 202.322C166.158 202.322 165.573 204.023 165.573 205.299C165.573 206.841 166.264 207.319 172.856 208.169C179.394 209.02 182.477 210.243 182.477 214.814C182.424 219.492 178.597 222.149 171.846 222.149Z" fill="#539E43"/>
<path d="M99.4991 143.159C99.4991 142.203 98.9675 141.299 98.117 140.821L75.5785 127.85C75.2064 127.638 74.7811 127.532 74.3559 127.478H74.1432C73.718 127.478 73.2927 127.638 72.9206 127.85L50.3821 140.821C49.5316 141.299 49 142.203 49 143.159L49.0532 178.03C49.0532 178.508 49.3189 178.987 49.7442 179.199C50.1695 179.465 50.701 179.465 51.0731 179.199L64.4687 171.545C65.3192 171.066 65.8507 170.163 65.8507 169.206V152.887C65.8507 151.93 66.3823 151.027 67.2328 150.548L72.9206 147.252C73.3459 146.987 73.8243 146.88 74.3027 146.88C74.7811 146.88 75.2595 146.987 75.6316 147.252L81.3194 150.548C82.1699 151.027 82.7015 151.93 82.7015 152.887V169.206C82.7015 170.163 83.2331 171.066 84.0836 171.545L97.4791 179.199C97.9044 179.465 98.4359 179.465 98.8612 179.199C99.2864 178.987 99.5522 178.508 99.5522 178.03L99.4991 143.159Z" fill="#333333"/>
<path d="M207.833 95.1595C207.408 94.9468 206.876 94.9468 206.504 95.1595C206.079 95.4252 205.813 95.8505 205.813 96.3289V130.88C205.813 131.199 205.653 131.518 205.335 131.731C205.016 131.89 204.697 131.89 204.378 131.731L198.743 128.488C197.893 128.01 196.883 128.01 196.032 128.488L173.494 141.512C172.643 141.99 172.111 142.894 172.111 143.851V169.844C172.111 170.801 172.643 171.704 173.494 172.183L196.032 185.206C196.883 185.684 197.893 185.684 198.743 185.206L221.282 172.183C222.132 171.704 222.664 170.801 222.664 169.844V105.047C222.664 104.037 222.132 103.133 221.282 102.654L207.833 95.1595ZM205.76 161.286C205.76 161.552 205.653 161.764 205.441 161.87L197.733 166.336C197.52 166.442 197.255 166.442 197.042 166.336L189.334 161.87C189.122 161.764 189.015 161.498 189.015 161.286V152.355C189.015 152.09 189.122 151.877 189.334 151.771L197.042 147.306C197.255 147.199 197.52 147.199 197.733 147.306L205.441 151.771C205.653 151.877 205.76 152.143 205.76 152.355V161.286Z" fill="#333333"/>
<path d="M282.837 152.143C283.688 151.664 284.166 150.761 284.166 149.804V143.478C284.166 142.522 283.635 141.618 282.837 141.14L260.458 128.169C259.608 127.691 258.598 127.691 257.747 128.169L235.209 141.193C234.358 141.671 233.827 142.575 233.827 143.532V169.525C233.827 170.482 234.358 171.385 235.209 171.864L257.588 184.621C258.438 185.1 259.448 185.1 260.246 184.621L273.801 177.073C274.226 176.861 274.492 176.382 274.492 175.904C274.492 175.425 274.226 174.947 273.801 174.734L251.156 161.711C250.731 161.445 250.465 161.02 250.465 160.542V152.409C250.465 151.93 250.731 151.452 251.156 151.239L258.226 147.199C258.651 146.934 259.182 146.934 259.608 147.199L266.678 151.239C267.103 151.505 267.369 151.93 267.369 152.409V158.787C267.369 159.266 267.634 159.744 268.06 159.957C268.485 160.223 269.016 160.223 269.442 159.957L282.837 152.143Z" fill="#333333"/>
<path d="M258.757 150.92C258.917 150.814 259.129 150.814 259.289 150.92L263.594 153.419C263.754 153.525 263.86 153.684 263.86 153.897V158.894C263.86 159.106 263.754 159.266 263.594 159.372L259.289 161.87C259.129 161.977 258.917 161.977 258.757 161.87L254.451 159.372C254.292 159.266 254.186 159.106 254.186 158.894V153.897C254.186 153.684 254.292 153.525 254.451 153.419L258.757 150.92Z" fill="#539E43"/>
<path d="M137.187 128.276C136.337 127.797 135.327 127.797 134.476 128.276L112.097 141.193C111.247 141.671 110.768 142.575 110.768 143.532V169.419C110.768 170.375 111.3 171.279 112.097 171.758L134.476 184.674C135.327 185.153 136.337 185.153 137.187 184.674L159.566 171.758C160.417 171.279 160.895 170.375 160.895 169.419V143.532C160.895 142.575 160.364 141.671 159.566 141.193L137.187 128.276Z" fill="url(#paint0_linear_1_231)"/>
<mask id="mask0_1_231" style="mask-type:luminance" maskUnits="userSpaceOnUse" x="110" y="127" width="51" height="59">
<path d="M137.187 128.276C136.337 127.797 135.327 127.797 134.476 128.276L112.097 141.193C111.247 141.671 110.768 142.575 110.768 143.532V169.419C110.768 170.375 111.3 171.279 112.097 171.758L134.476 184.674C135.327 185.153 136.337 185.153 137.187 184.674L159.566 171.758C160.417 171.279 160.895 170.375 160.895 169.419V143.532C160.895 142.575 160.364 141.671 159.566 141.193L137.187 128.276Z" fill="white"/>
</mask>
<g mask="url(#mask0_1_231)">
<path d="M159.62 141.193L137.134 128.276C136.922 128.169 136.656 128.063 136.443 128.01L111.247 171.173C111.459 171.439 111.725 171.651 111.991 171.811L134.476 184.728C135.114 185.1 135.858 185.206 136.549 184.993L160.204 141.724C160.045 141.512 159.832 141.352 159.62 141.193Z" fill="url(#paint1_linear_1_231)"/>
</g>
<mask id="mask1_1_231" style="mask-type:luminance" maskUnits="userSpaceOnUse" x="110" y="127" width="51" height="59">
<path d="M137.187 128.276C136.337 127.797 135.327 127.797 134.476 128.276L112.097 141.193C111.247 141.671 110.768 142.575 110.768 143.532V169.419C110.768 170.375 111.3 171.279 112.097 171.758L134.476 184.674C135.327 185.153 136.337 185.153 137.187 184.674L159.566 171.758C160.417 171.279 160.895 170.375 160.895 169.419V143.532C160.895 142.575 160.364 141.671 159.566 141.193L137.187 128.276Z" fill="white"/>
</mask>
<g mask="url(#mask1_1_231)">
<path fill-rule="evenodd" clip-rule="evenodd" d="M159.673 171.758C160.311 171.386 160.789 170.748 161.002 170.057L136.337 127.957C135.699 127.851 135.008 127.904 134.423 128.276L112.097 141.14L136.177 185.047C136.496 184.993 136.868 184.887 137.187 184.728L159.673 171.758Z" fill="url(#paint2_linear_1_231)"/>
<path fill-rule="evenodd" clip-rule="evenodd" d="M159.673 171.758L137.24 184.675C136.922 184.834 136.603 184.94 136.23 184.993L136.656 185.791L161.533 171.385V171.067L160.895 170.003C160.789 170.748 160.311 171.385 159.673 171.758Z" fill="url(#paint3_linear_1_231)"/>
<path fill-rule="evenodd" clip-rule="evenodd" d="M159.673 171.758L137.24 184.675C136.922 184.834 136.603 184.94 136.23 184.993L136.656 185.791L161.533 171.385V171.067L160.895 170.003C160.789 170.748 160.311 171.385 159.673 171.758Z" fill="url(#paint4_linear_1_231)"/>
</g>
</g>
<defs>
<filter id="filter0_d_1_231" x="0" y="0" width="334" height="334" filterUnits="userSpaceOnUse" color-interpolation-filters="sRGB">
<feFlood flood-opacity="0" result="BackgroundImageFix"/>
<feColorMatrix in="SourceAlpha" type="matrix" values="0 0 0 0 0 0 0 0 0 0 0 0 0 0 0 0 0 0 127 0" result="hardAlpha"/>
<feOffset/>
<feGaussianBlur stdDeviation="7"/>
<feComposite in2="hardAlpha" operator="out"/>
<feColorMatrix type="matrix" values="0 0 0 0 0 0 0 0 0 0 0 0 0 0 0 0 0 0 0.25 0"/>
<feBlend mode="normal" in2="BackgroundImageFix" result="effect1_dropShadow_1_231"/>
<feBlend mode="normal" in="SourceGraphic" in2="effect1_dropShadow_1_231" result="shape"/>
</filter>
<filter id="filter1_d_1_231" x="45" y="95" width="243.166" height="152" filterUnits="userSpaceOnUse" color-interpolation-filters="sRGB">
<feFlood flood-opacity="0" result="BackgroundImageFix"/>
<feColorMatrix in="SourceAlpha" type="matrix" values="0 0 0 0 0 0 0 0 0 0 0 0 0 0 0 0 0 0 127 0" result="hardAlpha"/>
<feOffset dy="4"/>
<feGaussianBlur stdDeviation="2"/>
<feComposite in2="hardAlpha" operator="out"/>
<feColorMatrix type="matrix" values="0 0 0 0 0 0 0 0 0 0 0 0 0 0 0 0 0 0 0.25 0"/>
<feBlend mode="normal" in2="BackgroundImageFix" result="effect1_dropShadow_1_231"/>
<feBlend mode="normal" in="SourceGraphic" in2="effect1_dropShadow_1_231" result="shape"/>
</filter>
<linearGradient id="paint0_linear_1_231" x1="3528.85" y1="1126.7" x2="1075.85" y2="4980.99" gradientUnits="userSpaceOnUse">
<stop stop-color="#41873F"/>
<stop offset="0.3288" stop-color="#418B3D"/>
<stop offset="0.6352" stop-color="#419637"/>
<stop offset="0.9319" stop-color="#3FA92D"/>
<stop offset="1" stop-color="#3FAE2A"/>
</linearGradient>
<linearGradient id="paint1_linear_1_231" x1="2229.96" y1="3277.69" x2="8373.2" y2="-59.9639" gradientUnits="userSpaceOnUse">
<stop offset="0.1376" stop-color="#41873F"/>
<stop offset="0.4032" stop-color="#54A044"/>
<stop offset="0.7136" stop-color="#66B848"/>
<stop offset="0.9081" stop-color="#6CC04A"/>
</linearGradient>
<linearGradient id="paint2_linear_1_231" x1="-102.534" y1="2984.65" x2="5075.85" y2="2984.65" gradientUnits="userSpaceOnUse">
<stop offset="0.0919165" stop-color="#6CC04A"/>
<stop offset="0.2864" stop-color="#66B848"/>
<stop offset="0.5968" stop-color="#54A044"/>
<stop offset="0.8624" stop-color="#41873F"/>
</linearGradient>
<linearGradient id="paint3_linear_1_231" x1="-2491.73" y1="963.721" x2="2686.66" y2="963.721" gradientUnits="userSpaceOnUse">
<stop offset="0.0919165" stop-color="#6CC04A"/>
<stop offset="0.2864" stop-color="#66B848"/>
<stop offset="0.5968" stop-color="#54A044"/>
<stop offset="0.8624" stop-color="#41873F"/>
</linearGradient>
<linearGradient id="paint4_linear_1_231" x1="3441.09" y1="-3162.23" x2="2129.24" y2="3711.95" gradientUnits="userSpaceOnUse">
<stop stop-color="#41873F"/>
<stop offset="0.3288" stop-color="#418B3D"/>
<stop offset="0.6352" stop-color="#419637"/>
<stop offset="0.9319" stop-color="#3FA92D"/>
<stop offset="1" stop-color="#3FAE2A"/>
</linearGradient>
</defs>
</svg>
