<svg width="334" height="334" viewBox="0 0 334 334" fill="none" xmlns="http://www.w3.org/2000/svg">
<g filter="url(#filter0_d_1_239)">
<circle cx="167" cy="167" r="153" fill="white"/>
</g>
<g filter="url(#filter1_d_1_239)">
<g filter="url(#filter2_d_1_239)">
<g filter="url(#filter3_d_1_239)">
<path d="M202.391 128.914H209.571C210.522 128.914 211.434 129.278 212.107 129.927C212.779 130.575 213.157 131.455 213.157 132.372C213.157 133.29 212.779 134.169 212.107 134.818C211.434 135.466 210.522 135.831 209.571 135.831H202.391C201.44 135.831 200.528 135.466 199.855 134.818C199.182 134.169 198.804 133.29 198.804 132.372C198.804 131.455 199.182 130.575 199.855 129.927C200.528 129.278 201.44 128.914 202.391 128.914Z" fill="#56B3B4"/>
<path d="M94.7116 239.671H130.603C131.554 239.671 132.466 240.035 133.139 240.684C133.811 241.332 134.189 242.212 134.189 243.129C134.189 243.583 134.096 244.033 133.916 244.453C133.736 244.872 133.472 245.254 133.139 245.575C132.806 245.896 132.41 246.151 131.975 246.324C131.54 246.498 131.074 246.588 130.603 246.588H94.7116C93.7615 246.588 92.8502 246.224 92.1777 245.577C91.5053 244.93 91.1267 244.051 91.125 243.135C91.1242 242.681 91.2163 242.23 91.3962 241.81C91.5761 241.39 91.8401 241.008 92.1733 240.686C92.5064 240.364 92.9021 240.109 93.3376 239.934C93.7732 239.76 94.2401 239.671 94.7116 239.671Z" fill="#EA5E5E"/>
<path d="M180.859 184.292H202.397C203.349 184.292 204.261 184.657 204.933 185.305C205.606 185.954 205.984 186.833 205.984 187.751C205.984 188.668 205.606 189.548 204.933 190.196C204.261 190.845 203.349 191.209 202.397 191.209H180.859C179.908 191.209 178.995 190.845 178.323 190.196C177.65 189.548 177.272 188.668 177.272 187.751C177.272 186.833 177.65 185.954 178.323 185.305C178.995 184.657 179.908 184.292 180.859 184.292Z" fill="#BF85BF"/>
<path d="M137.788 184.292H166.5C167.451 184.292 168.363 184.657 169.036 185.305C169.709 185.954 170.087 186.833 170.087 187.751C170.087 188.668 169.709 189.548 169.036 190.196C168.363 190.845 167.451 191.209 166.5 191.209H137.788C136.837 191.209 135.925 190.845 135.252 190.196C134.58 189.548 134.202 188.668 134.202 187.751C134.202 186.833 134.58 185.954 135.252 185.305C135.925 184.657 136.837 184.292 137.788 184.292Z" fill="#EA5E5E"/>
<path d="M94.7116 184.292H123.429C124.381 184.292 125.293 184.657 125.966 185.305C126.638 185.954 127.016 186.833 127.016 187.751C127.016 188.668 126.638 189.548 125.966 190.196C125.293 190.845 124.381 191.209 123.429 191.209H94.7116C93.7615 191.209 92.8502 190.846 92.1777 190.198C91.5053 189.551 91.1267 188.673 91.125 187.757C91.1242 187.302 91.2163 186.852 91.3962 186.431C91.5761 186.011 91.8401 185.629 92.1733 185.307C92.5064 184.986 92.9021 184.73 93.3376 184.556C93.7732 184.382 94.2401 184.292 94.7116 184.292Z" fill="#56B3B4"/>
<path d="M94.7116 211.984H130.603C131.554 211.984 132.466 212.349 133.139 212.997C133.811 213.646 134.189 214.526 134.189 215.443C134.189 216.36 133.811 217.24 133.139 217.889C132.466 218.537 131.554 218.902 130.603 218.902H94.7116C93.7604 218.902 92.8481 218.537 92.1755 217.889C91.5029 217.24 91.125 216.36 91.125 215.443C91.125 214.526 91.5029 213.646 92.1755 212.997C92.8481 212.349 93.7604 211.984 94.7116 211.984Z" fill="#BF85BF"/>
<path d="M94.7116 156.606H130.603C131.554 156.606 132.466 156.97 133.139 157.619C133.811 158.268 134.189 159.147 134.189 160.065C134.189 160.982 133.811 161.862 133.139 162.51C132.466 163.159 131.554 163.523 130.603 163.523H94.7116C93.7604 163.523 92.8481 163.159 92.1755 162.51C91.5029 161.862 91.125 160.982 91.125 160.065C91.125 159.147 91.5029 158.268 92.1755 157.619C92.8481 156.97 93.7604 156.606 94.7116 156.606Z" fill="#BF85BF"/>
<path d="M130.609 115.074H202.391C203.342 115.074 204.255 115.438 204.927 116.087C205.6 116.735 205.978 117.615 205.978 118.532C205.978 119.45 205.6 120.329 204.927 120.978C204.255 121.626 203.342 121.991 202.391 121.991H130.609C129.658 121.991 128.745 121.626 128.073 120.978C127.4 120.329 127.022 119.45 127.022 118.532C127.022 117.615 127.4 116.735 128.073 116.087C128.745 115.438 129.658 115.074 130.609 115.074Z" fill="#F7BA3E"/>
<path d="M94.7116 115.074H116.25C117.201 115.074 118.113 115.438 118.786 116.087C119.459 116.735 119.837 117.615 119.837 118.532C119.837 118.987 119.745 119.437 119.565 119.858C119.386 120.278 119.121 120.66 118.788 120.982C118.455 121.304 118.06 121.559 117.624 121.733C117.188 121.907 116.722 121.997 116.25 121.997H94.7116C94.2401 121.997 93.7732 121.907 93.3376 121.733C92.9021 121.559 92.5064 121.304 92.1733 120.982C91.8401 120.66 91.5761 120.278 91.3962 119.858C91.2163 119.437 91.1242 118.987 91.125 118.532C91.125 117.615 91.5029 116.735 92.1755 116.087C92.8481 115.438 93.7604 115.074 94.7116 115.074Z" fill="#EA5E5E"/>
<path d="M123.429 225.825H130.609C131.56 225.825 132.472 226.189 133.145 226.838C133.818 227.486 134.196 228.366 134.196 229.283C134.196 230.2 133.818 231.08 133.145 231.729C132.472 232.377 131.56 232.742 130.609 232.742H123.429C122.478 232.742 121.566 232.377 120.893 231.729C120.221 231.08 119.843 230.2 119.843 229.283C119.843 228.366 120.221 227.486 120.893 226.838C121.566 226.189 122.478 225.825 123.429 225.825Z" fill="#F7BA3E"/>
<path d="M123.429 142.76H130.609C131.56 142.76 132.472 143.124 133.145 143.773C133.818 144.422 134.196 145.301 134.196 146.219C134.196 147.136 133.818 148.015 133.145 148.664C132.472 149.313 131.56 149.677 130.609 149.677H123.429C122.478 149.677 121.566 149.313 120.893 148.664C120.221 148.015 119.843 147.136 119.843 146.219C119.843 145.301 120.221 144.422 120.893 143.773C121.566 143.124 122.478 142.76 123.429 142.76Z" fill="#56B3B4"/>
<path d="M94.7116 225.825H109.071C110.022 225.825 110.934 226.189 111.607 226.838C112.279 227.486 112.657 228.366 112.657 229.283C112.657 230.2 112.279 231.08 111.607 231.729C110.934 232.377 110.022 232.742 109.071 232.742H94.7116C93.7615 232.742 92.8502 232.378 92.1777 231.731C91.5053 231.083 91.1267 230.205 91.125 229.289C91.1242 228.834 91.2163 228.384 91.3962 227.964C91.5761 227.543 91.8401 227.161 92.1733 226.84C92.5064 226.518 92.9021 226.263 93.3376 226.088C93.7732 225.914 94.2401 225.825 94.7116 225.825Z" fill="#56B3B4"/>
<path d="M94.7116 142.76H109.071C110.022 142.76 110.934 143.124 111.607 143.773C112.279 144.422 112.657 145.301 112.657 146.219C112.658 146.673 112.566 147.124 112.386 147.544C112.206 147.964 111.942 148.346 111.609 148.668C111.276 148.99 110.88 149.245 110.445 149.419C110.009 149.593 109.542 149.683 109.071 149.683H94.7116C93.7604 149.683 92.8481 149.319 92.1755 148.67C91.5029 148.022 91.125 147.142 91.125 146.225C91.1242 145.77 91.2163 145.319 91.3962 144.899C91.5761 144.479 91.8401 144.097 92.1733 143.775C92.5064 143.453 92.9021 143.198 93.3376 143.024C93.7732 142.85 94.2401 142.76 94.7116 142.76Z" fill="#F7BA3E"/>
<path opacity="0.5" d="M188.038 225.825H195.218C196.169 225.825 197.081 226.189 197.754 226.838C198.427 227.486 198.804 228.366 198.804 229.283C198.804 230.2 198.427 231.08 197.754 231.729C197.081 232.377 196.169 232.742 195.218 232.742H188.038C187.087 232.742 186.175 232.377 185.502 231.729C184.83 231.08 184.452 230.2 184.452 229.283C184.452 228.366 184.83 227.486 185.502 226.838C186.175 226.189 187.087 225.825 188.038 225.825Z" fill="#D0D4D8"/>
<path opacity="0.5" d="M144.962 225.825H173.673C174.624 225.825 175.537 226.189 176.209 226.838C176.882 227.486 177.26 228.366 177.26 229.283C177.26 230.2 176.882 231.08 176.209 231.729C175.537 232.377 174.624 232.742 173.673 232.742H144.962C144.011 232.742 143.1 232.378 142.428 231.731C141.755 231.083 141.377 230.205 141.375 229.289C141.374 228.834 141.466 228.384 141.646 227.964C141.826 227.543 142.09 227.161 142.423 226.84C142.756 226.518 143.152 226.263 143.588 226.088C144.023 225.914 144.49 225.825 144.962 225.825Z" fill="#D0D4D8"/>
<path opacity="0.5" d="M209.57 225.825H238.282C239.233 225.825 240.146 226.189 240.818 226.838C241.491 227.486 241.869 228.366 241.869 229.283C241.869 230.2 241.491 231.08 240.818 231.729C240.146 232.377 239.233 232.742 238.282 232.742H209.57C208.619 232.742 207.707 232.377 207.034 231.729C206.362 231.08 205.984 230.2 205.984 229.283C205.984 228.366 206.362 227.486 207.034 226.838C207.707 226.189 208.619 225.825 209.57 225.825Z" fill="#D0D4D8"/>
<path d="M152.141 170.452H209.571C210.522 170.452 211.434 170.817 212.107 171.465C212.779 172.114 213.157 172.994 213.157 173.911C213.157 174.828 212.779 175.708 212.107 176.356C211.434 177.005 210.522 177.369 209.571 177.369H152.141C151.19 177.369 150.278 177.005 149.605 176.356C148.932 175.708 148.554 174.828 148.554 173.911C148.554 172.994 148.932 172.114 149.605 171.465C150.278 170.817 151.19 170.452 152.141 170.452Z" fill="#56B3B4"/>
<path d="M116.25 170.452H137.788C138.74 170.452 139.652 170.817 140.325 171.465C140.997 172.114 141.375 172.994 141.375 173.911C141.375 174.828 140.997 175.708 140.325 176.356C139.652 177.005 138.74 177.369 137.788 177.369H116.25C115.299 177.369 114.387 177.005 113.714 176.356C113.041 175.708 112.663 174.828 112.663 173.911C112.663 172.994 113.041 172.114 113.714 171.465C114.387 170.817 115.299 170.452 116.25 170.452Z" fill="#F7BA3E"/>
<path d="M94.7116 170.452H101.891C102.363 170.451 102.83 170.54 103.266 170.714C103.701 170.887 104.098 171.142 104.431 171.463C104.765 171.784 105.03 172.166 105.21 172.586C105.391 173.006 105.484 173.456 105.484 173.911C105.484 174.828 105.106 175.708 104.433 176.356C103.761 177.005 102.849 177.369 101.897 177.369H94.7116C93.7604 177.369 92.8481 177.005 92.1755 176.356C91.5029 175.708 91.125 174.828 91.125 173.911C91.125 172.994 91.5029 172.114 92.1755 171.465C92.8481 170.817 93.7604 170.452 94.7116 170.452Z" fill="#EA5E5E"/>
<path d="M159.32 128.914H188.032C188.504 128.913 188.972 129.002 189.408 129.176C189.844 129.35 190.241 129.605 190.574 129.927C190.908 130.249 191.173 130.631 191.353 131.052C191.533 131.472 191.626 131.923 191.625 132.378C191.625 133.296 191.247 134.175 190.574 134.824C189.902 135.473 188.99 135.837 188.038 135.837H159.32C158.369 135.837 157.457 135.473 156.784 134.824C156.112 134.175 155.734 133.296 155.734 132.378C155.733 131.924 155.825 131.473 156.005 131.053C156.185 130.633 156.449 130.251 156.782 129.929C157.115 129.607 157.511 129.352 157.946 129.178C158.382 129.003 158.849 128.914 159.32 128.914Z" fill="#BF85BF"/>
<path d="M94.7116 128.914H144.962C145.913 128.914 146.825 129.278 147.498 129.927C148.17 130.575 148.548 131.455 148.548 132.372C148.548 133.29 148.17 134.169 147.498 134.818C146.825 135.466 145.913 135.831 144.962 135.831H94.7116C93.7615 135.831 92.8502 135.467 92.1777 134.82C91.5053 134.173 91.1267 133.295 91.125 132.378C91.1242 131.924 91.2163 131.473 91.3962 131.053C91.5761 130.633 91.8401 130.251 92.1733 129.929C92.5064 129.607 92.9021 129.352 93.3376 129.178C93.7732 129.003 94.2401 128.914 94.7116 128.914Z" fill="#56B3B4"/>
<path d="M116.25 198.138H180.859C181.33 198.138 181.796 198.228 182.232 198.402C182.667 198.575 183.062 198.83 183.395 199.151C183.728 199.473 183.992 199.854 184.173 200.273C184.353 200.693 184.446 201.143 184.446 201.597C184.446 202.514 184.068 203.394 183.395 204.042C182.722 204.691 181.81 205.055 180.859 205.055H116.25C115.299 205.055 114.387 204.691 113.714 204.042C113.041 203.394 112.663 202.514 112.663 201.597C112.663 201.143 112.756 200.693 112.936 200.273C113.117 199.854 113.381 199.473 113.714 199.151C114.047 198.83 114.442 198.575 114.878 198.402C115.313 198.228 115.779 198.138 116.25 198.138Z" fill="#F7BA3E"/>
<path d="M94.7116 198.138H101.891C102.362 198.138 102.828 198.228 103.264 198.402C103.699 198.575 104.094 198.83 104.427 199.151C104.76 199.473 105.024 199.854 105.205 200.273C105.385 200.693 105.478 201.143 105.478 201.597C105.478 202.514 105.1 203.394 104.427 204.042C103.755 204.691 102.842 205.055 101.891 205.055H94.7116C93.7604 205.055 92.8481 204.691 92.1755 204.042C91.5029 203.394 91.125 202.514 91.125 201.597C91.125 201.143 91.2178 200.693 91.398 200.273C91.5783 199.854 91.8424 199.473 92.1755 199.151C92.5085 198.83 92.9039 198.575 93.3391 198.402C93.7742 198.228 94.2406 198.138 94.7116 198.138Z" fill="#BF85BF"/>
<path d="M180.859 142.76H216.75C217.701 142.76 218.613 143.124 219.286 143.773C219.959 144.422 220.337 145.301 220.337 146.219C220.337 146.673 220.245 147.124 220.065 147.544C219.886 147.964 219.621 148.346 219.288 148.668C218.955 148.99 218.56 149.245 218.124 149.419C217.688 149.593 217.222 149.683 216.75 149.683H180.859C179.908 149.683 178.995 149.319 178.323 148.67C177.65 148.022 177.272 147.142 177.272 146.225C177.272 145.77 177.364 145.319 177.544 144.899C177.723 144.479 177.987 144.097 178.321 143.775C178.654 143.453 179.049 143.198 179.485 143.024C179.921 142.85 180.387 142.76 180.859 142.76Z" fill="#EA5E5E"/>
<path d="M180.859 156.606H216.75C217.701 156.606 218.613 156.97 219.286 157.619C219.959 158.268 220.337 159.147 220.337 160.065C220.337 160.982 219.959 161.862 219.286 162.51C218.613 163.159 217.701 163.523 216.75 163.523H180.859C179.908 163.523 178.995 163.159 178.323 162.51C177.65 161.862 177.272 160.982 177.272 160.065C177.272 159.147 177.65 158.268 178.323 157.619C178.995 156.97 179.908 156.606 180.859 156.606Z" fill="#F7BA3E"/>
<path d="M94.7116 101.228H180.859C181.81 101.228 182.722 101.592 183.395 102.241C184.068 102.889 184.446 103.769 184.446 104.686C184.446 105.603 184.068 106.483 183.395 107.132C182.722 107.78 181.81 108.145 180.859 108.145H94.7116C93.7604 108.145 92.8481 107.78 92.1755 107.132C91.5029 106.483 91.125 105.603 91.125 104.686C91.125 103.769 91.5029 102.889 92.1755 102.241C92.8481 101.592 93.7604 101.228 94.7116 101.228Z" fill="#56B3B4"/>
<path opacity="0.5" d="M195.212 101.228H238.282C238.754 101.227 239.221 101.316 239.657 101.489C240.092 101.663 240.489 101.917 240.822 102.238C241.156 102.56 241.421 102.941 241.601 103.361C241.782 103.781 241.875 104.231 241.875 104.686C241.875 105.603 241.497 106.483 240.825 107.132C240.152 107.78 239.24 108.145 238.288 108.145H195.212C194.26 108.145 193.348 107.78 192.675 107.132C192.003 106.483 191.625 105.603 191.625 104.686C191.625 103.769 192.003 102.889 192.675 102.241C193.348 101.592 194.26 101.228 195.212 101.228Z" fill="#D0D4D8"/>
<path opacity="0.5" d="M195.212 198.138H209.571C210.042 198.138 210.508 198.228 210.943 198.402C211.378 198.575 211.774 198.83 212.107 199.151C212.44 199.473 212.704 199.854 212.884 200.273C213.064 200.693 213.157 201.143 213.157 201.597C213.157 202.514 212.779 203.394 212.107 204.042C211.434 204.691 210.522 205.055 209.571 205.055H195.212C194.741 205.055 194.274 204.966 193.839 204.792C193.404 204.618 193.009 204.364 192.675 204.042C192.342 203.721 192.078 203.34 191.898 202.92C191.718 202.501 191.625 202.051 191.625 201.597C191.625 201.143 191.718 200.693 191.898 200.273C192.078 199.854 192.342 199.473 192.675 199.151C193.009 198.83 193.404 198.575 193.839 198.402C194.274 198.228 194.741 198.138 195.212 198.138Z" fill="#D0D4D8"/>
<path opacity="0.5" d="M223.929 198.138H238.288C238.759 198.138 239.226 198.228 239.661 198.402C240.096 198.575 240.491 198.83 240.825 199.151C241.158 199.473 241.422 199.854 241.602 200.273C241.782 200.693 241.875 201.143 241.875 201.597C241.875 202.051 241.782 202.501 241.602 202.92C241.422 203.34 241.158 203.721 240.825 204.042C240.491 204.364 240.096 204.618 239.661 204.792C239.226 204.966 238.759 205.055 238.288 205.055H223.929C222.978 205.055 222.066 204.691 221.393 204.042C220.721 203.394 220.343 202.514 220.343 201.597C220.343 201.143 220.436 200.693 220.616 200.273C220.796 199.854 221.06 199.473 221.393 199.151C221.726 198.83 222.122 198.575 222.557 198.402C222.992 198.228 223.458 198.138 223.929 198.138Z" fill="#D0D4D8"/>
<path opacity="0.5" d="M216.75 184.292H238.288C239.24 184.292 240.152 184.657 240.825 185.305C241.497 185.954 241.875 186.833 241.875 187.751C241.875 188.668 241.497 189.548 240.825 190.196C240.152 190.845 239.24 191.209 238.288 191.209H216.75C215.799 191.209 214.887 190.845 214.214 190.196C213.541 189.548 213.163 188.668 213.163 187.751C213.163 186.833 213.541 185.954 214.214 185.305C214.887 184.657 215.799 184.292 216.75 184.292Z" fill="#D0D4D8"/>
<path opacity="0.5" d="M216.75 115.074H238.288C239.24 115.074 240.152 115.438 240.825 116.087C241.497 116.735 241.875 117.615 241.875 118.532C241.875 119.449 241.497 120.329 240.825 120.978C240.152 121.626 239.24 121.991 238.288 121.991H216.75C215.799 121.991 214.887 121.626 214.214 120.978C213.541 120.329 213.163 119.449 213.163 118.532C213.163 117.615 213.541 116.735 214.214 116.087C214.887 115.438 215.799 115.074 216.75 115.074Z" fill="#D0D4D8"/>
<path opacity="0.5" d="M223.929 170.452H238.288C238.759 170.452 239.226 170.542 239.661 170.715C240.096 170.889 240.491 171.144 240.824 171.465C241.158 171.786 241.422 172.168 241.602 172.587C241.782 173.007 241.875 173.456 241.875 173.911C241.875 174.365 241.782 174.815 241.602 175.234C241.422 175.654 241.158 176.035 240.824 176.356C240.491 176.677 240.096 176.932 239.661 177.106C239.226 177.28 238.759 177.369 238.288 177.369H223.929C223.458 177.37 222.991 177.281 222.555 177.108C222.119 176.934 221.723 176.68 221.389 176.358C221.056 176.037 220.791 175.656 220.61 175.236C220.43 174.816 220.337 174.365 220.337 173.911C220.337 173.456 220.43 173.006 220.61 172.586C220.791 172.166 221.056 171.784 221.389 171.463C221.723 171.142 222.119 170.887 222.555 170.714C222.991 170.54 223.458 170.451 223.929 170.452Z" fill="#D0D4D8"/>
<path opacity="0.5" d="M223.929 128.914H238.288C238.76 128.914 239.227 129.003 239.662 129.178C240.098 129.352 240.494 129.607 240.827 129.929C241.16 130.251 241.424 130.633 241.604 131.053C241.784 131.473 241.876 131.924 241.875 132.378C241.875 132.833 241.782 133.282 241.602 133.702C241.422 134.121 241.158 134.503 240.825 134.824C240.491 135.145 240.096 135.4 239.661 135.574C239.226 135.747 238.759 135.837 238.288 135.837H223.929C222.978 135.837 222.066 135.472 221.393 134.824C220.721 134.175 220.343 133.296 220.343 132.378C220.342 131.924 220.434 131.473 220.614 131.053C220.794 130.633 221.058 130.251 221.391 129.929C221.724 129.607 222.12 129.352 222.556 129.178C222.991 129.003 223.458 128.914 223.929 128.914Z" fill="#D0D4D8"/>
<path opacity="0.5" d="M231.109 142.76H238.288C238.759 142.76 239.226 142.849 239.661 143.023C240.096 143.197 240.491 143.452 240.825 143.773C241.158 144.094 241.422 144.475 241.602 144.895C241.782 145.315 241.875 145.764 241.875 146.219C241.875 146.673 241.782 147.122 241.602 147.542C241.422 147.962 241.158 148.343 240.825 148.664C240.491 148.985 240.096 149.24 239.661 149.414C239.226 149.588 238.759 149.677 238.288 149.677H231.109C230.158 149.677 229.245 149.313 228.573 148.664C227.9 148.015 227.522 147.136 227.522 146.219C227.522 145.301 227.9 144.422 228.573 143.773C229.245 143.124 230.158 142.76 231.109 142.76Z" fill="#D0D4D8"/>
<path opacity="0.5" d="M231.109 156.606H238.288C238.759 156.606 239.226 156.696 239.661 156.869C240.096 157.043 240.491 157.298 240.825 157.619C241.158 157.94 241.422 158.321 241.602 158.741C241.782 159.161 241.875 159.61 241.875 160.065C241.875 160.519 241.782 160.968 241.602 161.388C241.422 161.808 241.158 162.189 240.825 162.51C240.491 162.831 240.096 163.086 239.661 163.26C239.226 163.434 238.759 163.523 238.288 163.523H231.109C230.158 163.523 229.245 163.159 228.573 162.51C227.9 161.862 227.522 160.982 227.522 160.065C227.522 159.147 227.9 158.268 228.573 157.619C229.245 156.97 230.158 156.606 231.109 156.606Z" fill="#D0D4D8"/>
<path opacity="0.5" d="M173.679 211.984H238.288C238.759 211.984 239.226 212.074 239.661 212.248C240.096 212.422 240.491 212.676 240.825 212.997C241.158 213.319 241.422 213.7 241.602 214.119C241.782 214.539 241.875 214.989 241.875 215.443C241.875 215.897 241.782 216.347 241.602 216.767C241.422 217.186 241.158 217.567 240.825 217.889C240.491 218.21 240.096 218.464 239.661 218.638C239.226 218.812 238.759 218.902 238.288 218.902H173.679C172.728 218.902 171.816 218.537 171.143 217.889C170.471 217.24 170.093 216.36 170.093 215.443C170.093 214.526 170.471 213.646 171.143 212.997C171.816 212.349 172.728 211.984 173.679 211.984Z" fill="#D0D4D8"/>
<path opacity="0.5" d="M144.962 211.984H159.321C160.272 211.984 161.184 212.349 161.857 212.997C162.529 213.646 162.907 214.526 162.907 215.443C162.907 216.36 162.529 217.24 161.857 217.889C161.184 218.537 160.272 218.902 159.321 218.902H144.962C144.01 218.902 143.098 218.537 142.425 217.889C141.753 217.24 141.375 216.36 141.375 215.443C141.375 214.526 141.753 213.646 142.425 212.997C143.098 212.349 144.01 211.984 144.962 211.984Z" fill="#D0D4D8"/>
<path opacity="0.5" d="M202.391 239.671H238.282C239.233 239.671 240.146 240.035 240.818 240.684C241.491 241.332 241.869 242.212 241.869 243.129C241.869 243.583 241.776 244.033 241.596 244.453C241.415 244.872 241.151 245.254 240.818 245.575C240.485 245.896 240.09 246.151 239.655 246.324C239.219 246.498 238.753 246.588 238.282 246.588H202.391C201.92 246.588 201.454 246.498 201.019 246.324C200.583 246.151 200.188 245.896 199.855 245.575C199.522 245.254 199.258 244.872 199.077 244.453C198.897 244.033 198.804 243.583 198.804 243.129C198.804 242.212 199.182 241.332 199.855 240.684C200.528 240.035 201.44 239.671 202.391 239.671Z" fill="#D0D4D8"/>
<path opacity="0.5" d="M144.962 239.671H188.032C188.983 239.671 189.896 240.035 190.568 240.684C191.241 241.332 191.619 242.212 191.619 243.129C191.619 243.583 191.526 244.033 191.346 244.453C191.165 244.872 190.901 245.254 190.568 245.575C190.235 245.896 189.84 246.151 189.405 246.324C188.97 246.498 188.503 246.588 188.032 246.588H144.962C144.011 246.588 143.1 246.224 142.428 245.577C141.755 244.93 141.377 244.051 141.375 243.135C141.374 242.681 141.466 242.23 141.646 241.81C141.826 241.39 142.09 241.008 142.423 240.686C142.756 240.364 143.152 240.109 143.588 239.934C144.023 239.76 144.49 239.671 144.962 239.671Z" fill="#D0D4D8"/>
<path opacity="0.5" d="M144.962 142.76H166.5C167.451 142.76 168.363 143.124 169.036 143.773C169.709 144.422 170.087 145.301 170.087 146.219C170.087 146.673 169.995 147.124 169.815 147.544C169.636 147.964 169.371 148.346 169.038 148.668C168.705 148.99 168.31 149.245 167.874 149.419C167.438 149.593 166.972 149.683 166.5 149.683H144.962C144.01 149.683 143.098 149.319 142.425 148.67C141.753 148.022 141.375 147.142 141.375 146.225C141.374 145.77 141.466 145.319 141.646 144.899C141.826 144.479 142.09 144.097 142.423 143.775C142.756 143.453 143.152 143.198 143.588 143.024C144.023 142.85 144.49 142.76 144.962 142.76Z" fill="#D0D4D8"/>
<path opacity="0.5" d="M144.962 156.606H166.5C167.451 156.606 168.363 156.97 169.036 157.619C169.709 158.268 170.087 159.147 170.087 160.065C170.087 160.982 169.709 161.862 169.036 162.51C168.363 163.159 167.451 163.523 166.5 163.523H144.962C144.01 163.523 143.098 163.159 142.425 162.51C141.753 161.862 141.375 160.982 141.375 160.065C141.375 159.147 141.753 158.268 142.425 157.619C143.098 156.97 144.01 156.606 144.962 156.606Z" fill="#D0D4D8"/>
</g>
</g>
</g>
<defs>
<filter id="filter0_d_1_239" x="0" y="0" width="334" height="334" filterUnits="userSpaceOnUse" color-interpolation-filters="sRGB">
<feFlood flood-opacity="0" result="BackgroundImageFix"/>
<feColorMatrix in="SourceAlpha" type="matrix" values="0 0 0 0 0 0 0 0 0 0 0 0 0 0 0 0 0 0 127 0" result="hardAlpha"/>
<feOffset/>
<feGaussianBlur stdDeviation="7"/>
<feComposite in2="hardAlpha" operator="out"/>
<feColorMatrix type="matrix" values="0 0 0 0 0 0 0 0 0 0 0 0 0 0 0 0 0 0 0.25 0"/>
<feBlend mode="normal" in2="BackgroundImageFix" result="effect1_dropShadow_1_239"/>
<feBlend mode="normal" in="SourceGraphic" in2="effect1_dropShadow_1_239" result="shape"/>
</filter>
<filter id="filter1_d_1_239" x="62" y="77" width="209" height="201.821" filterUnits="userSpaceOnUse" color-interpolation-filters="sRGB">
<feFlood flood-opacity="0" result="BackgroundImageFix"/>
<feColorMatrix in="SourceAlpha" type="matrix" values="0 0 0 0 0 0 0 0 0 0 0 0 0 0 0 0 0 0 127 0" result="hardAlpha"/>
<feOffset dy="4"/>
<feGaussianBlur stdDeviation="2"/>
<feComposite in2="hardAlpha" operator="out"/>
<feColorMatrix type="matrix" values="0 0 0 0 0 0 0 0 0 0 0 0 0 0 0 0 0 0 0.25 0"/>
<feBlend mode="normal" in2="BackgroundImageFix" result="effect1_dropShadow_1_239"/>
<feBlend mode="normal" in="SourceGraphic" in2="effect1_dropShadow_1_239" result="shape"/>
</filter>
<filter id="filter2_d_1_239" x="62" y="77" width="209" height="201.821" filterUnits="userSpaceOnUse" color-interpolation-filters="sRGB">
<feFlood flood-opacity="0" result="BackgroundImageFix"/>
<feColorMatrix in="SourceAlpha" type="matrix" values="0 0 0 0 0 0 0 0 0 0 0 0 0 0 0 0 0 0 127 0" result="hardAlpha"/>
<feOffset dy="4"/>
<feGaussianBlur stdDeviation="2"/>
<feComposite in2="hardAlpha" operator="out"/>
<feColorMatrix type="matrix" values="0 0 0 0 0 0 0 0 0 0 0 0 0 0 0 0 0 0 0.25 0"/>
<feBlend mode="normal" in2="BackgroundImageFix" result="effect1_dropShadow_1_239"/>
<feBlend mode="normal" in="SourceGraphic" in2="effect1_dropShadow_1_239" result="shape"/>
</filter>
<filter id="filter3_d_1_239" x="87.125" y="98.2277" width="158.75" height="153.36" filterUnits="userSpaceOnUse" color-interpolation-filters="sRGB">
<feFlood flood-opacity="0" result="BackgroundImageFix"/>
<feColorMatrix in="SourceAlpha" type="matrix" values="0 0 0 0 0 0 0 0 0 0 0 0 0 0 0 0 0 0 127 0" result="hardAlpha"/>
<feOffset dy="1"/>
<feGaussianBlur stdDeviation="2"/>
<feComposite in2="hardAlpha" operator="out"/>
<feColorMatrix type="matrix" values="0 0 0 0 0 0 0 0 0 0 0 0 0 0 0 0 0 0 0.25 0"/>
<feBlend mode="normal" in2="BackgroundImageFix" result="effect1_dropShadow_1_239"/>
<feBlend mode="normal" in="SourceGraphic" in2="effect1_dropShadow_1_239" result="shape"/>
</filter>
</defs>
</svg>
