<svg width="334" height="334" viewBox="0 0 334 334" fill="none" xmlns="http://www.w3.org/2000/svg">
<g filter="url(#filter0_d_1_226)">
<circle cx="167" cy="167" r="153" fill="white"/>
</g>
<g filter="url(#filter1_d_1_226)">
<path d="M236.24 137.528C233.978 136.754 231.635 136.021 229.222 135.328C229.619 133.719 229.983 132.13 230.306 130.568C235.619 104.92 232.145 84.2578 220.285 77.455C208.912 70.932 190.313 77.7333 171.529 93.9928C169.723 95.5563 167.911 97.2116 166.101 98.9465C164.894 97.7987 163.69 96.6894 162.489 95.6284C142.802 78.2427 123.07 70.9162 111.221 77.7387C99.8595 84.2806 96.4948 103.705 101.277 128.012C101.738 130.359 102.278 132.757 102.888 135.195C100.096 135.983 97.3997 136.824 94.82 137.718C71.74 145.721 57 158.265 57 171.276C57 184.714 72.8234 198.192 96.863 206.365C98.7602 207.009 100.729 207.619 102.757 208.198C102.099 210.835 101.526 213.418 101.045 215.938C96.4859 239.823 100.047 258.788 111.378 265.289C123.082 272.002 142.726 265.102 161.853 248.472C163.365 247.157 164.882 245.763 166.402 244.302C168.372 246.189 170.339 247.975 172.296 249.65C190.823 265.507 209.121 271.911 220.442 265.392C232.135 258.659 235.935 238.286 231.002 213.499C230.625 211.605 230.186 209.671 229.694 207.703C231.073 207.297 232.428 206.879 233.748 206.443C258.74 198.207 275 184.893 275 171.276C275 158.218 259.785 145.59 236.24 137.528ZM230.819 197.651C229.627 198.043 228.404 198.423 227.158 198.791C224.399 190.103 220.675 180.865 216.118 171.321C220.467 162.004 224.046 152.884 226.728 144.253C228.958 144.895 231.123 145.572 233.208 146.286C253.382 153.194 265.687 163.407 265.687 171.276C265.687 179.658 252.398 190.539 230.819 197.651ZM221.866 215.297C224.047 226.258 224.359 236.168 222.914 243.915C221.615 250.876 219.004 255.517 215.776 257.376C208.906 261.331 194.214 256.19 178.369 242.628C176.553 241.073 174.723 239.413 172.888 237.657C179.03 230.975 185.169 223.206 191.161 214.579C201.7 213.649 211.656 212.128 220.686 210.052C221.13 211.837 221.525 213.587 221.866 215.297ZM131.321 256.692C124.609 259.05 119.263 259.118 116.031 257.264C109.155 253.319 106.296 238.092 110.196 217.666C110.642 215.326 111.174 212.923 111.787 210.467C120.717 212.431 130.601 213.845 141.164 214.697C147.197 223.138 153.513 230.898 159.878 237.692C158.488 239.028 157.102 240.299 155.725 241.497C147.267 248.851 138.791 254.068 131.321 256.692ZM99.875 197.6C89.2451 193.986 80.4665 189.289 74.4493 184.164C69.0423 179.558 66.3125 174.986 66.3125 171.276C66.3125 163.38 78.1472 153.31 97.8855 146.465C100.28 145.634 102.788 144.852 105.389 144.116C108.117 152.942 111.696 162.17 116.014 171.501C111.64 180.971 108.011 190.346 105.256 199.275C103.401 198.745 101.604 198.187 99.875 197.6ZM110.416 126.233C106.319 105.407 109.04 89.6975 115.887 85.7553C123.18 81.5558 139.307 87.5435 156.305 102.555C157.391 103.515 158.482 104.519 159.576 105.558C153.242 112.323 146.983 120.024 141.005 128.416C130.752 129.361 120.938 130.88 111.915 132.913C111.347 130.643 110.845 128.413 110.416 126.233ZM204.451 149.328C202.294 145.622 200.08 142.004 197.822 138.484C204.778 139.359 211.442 140.52 217.7 141.94C215.821 147.929 213.479 154.192 210.723 160.611C208.745 156.877 206.654 153.112 204.451 149.328ZM166.104 112.178C170.4 116.807 174.701 121.974 178.932 127.582C174.669 127.381 170.352 127.277 166 127.277C161.689 127.277 157.404 127.379 153.167 127.576C157.402 122.021 161.741 116.86 166.104 112.178ZM127.511 149.392C125.356 153.108 123.304 156.853 121.357 160.604C118.645 154.207 116.325 147.916 114.43 141.842C120.65 140.458 127.282 139.326 134.194 138.468C131.904 142.02 129.672 145.665 127.511 149.392ZM134.393 204.745C127.252 203.952 120.52 202.879 114.301 201.532C116.227 195.35 118.598 188.925 121.368 182.39C123.319 186.139 125.38 189.885 127.548 193.609C129.756 197.403 132.044 201.12 134.393 204.745ZM166.362 231.027C161.948 226.29 157.545 221.05 153.245 215.414C157.419 215.577 161.675 215.661 166 215.661C170.443 215.661 174.836 215.561 179.159 215.37C174.914 221.107 170.628 226.355 166.362 231.027ZM210.812 182.057C213.725 188.662 216.182 195.054 218.132 201.131C211.811 202.565 204.987 203.72 197.797 204.579C200.06 201.012 202.293 197.331 204.489 193.545C206.709 189.715 208.818 185.879 210.812 182.057ZM196.422 188.918C193.014 194.795 189.515 200.405 185.964 205.701C179.495 206.161 172.812 206.398 166 206.398C159.216 206.398 152.617 206.188 146.262 205.778C142.568 200.413 138.993 194.786 135.607 188.968C132.23 183.167 129.123 177.316 126.306 171.498C129.122 165.667 132.222 159.81 135.579 154.018L135.579 154.019C138.945 148.213 142.488 142.613 146.149 137.282C152.633 136.794 159.281 136.54 166 136.54C172.749 136.54 179.406 136.796 185.887 137.288C189.492 142.581 193.011 148.162 196.391 153.969C199.809 159.842 202.949 165.66 205.789 171.367C202.958 177.171 199.825 183.048 196.422 188.918ZM215.633 85.4798C222.933 89.667 225.772 106.554 221.185 128.698C220.893 130.111 220.563 131.55 220.206 133.009C211.161 130.933 201.34 129.389 191.057 128.429C185.067 119.945 178.86 112.231 172.629 105.554C174.304 103.951 175.977 102.422 177.643 100.98C193.737 87.0491 208.78 81.5488 215.633 85.4798ZM166 151.914C176.751 151.914 185.467 160.582 185.467 171.276C185.467 181.969 176.751 190.638 166 190.638C155.249 190.638 146.533 181.969 146.533 171.276C146.533 160.582 155.249 151.914 166 151.914Z" fill="#00D8FF"/>
</g>
<defs>
<filter id="filter0_d_1_226" x="0" y="0" width="334" height="334" filterUnits="userSpaceOnUse" color-interpolation-filters="sRGB">
<feFlood flood-opacity="0" result="BackgroundImageFix"/>
<feColorMatrix in="SourceAlpha" type="matrix" values="0 0 0 0 0 0 0 0 0 0 0 0 0 0 0 0 0 0 127 0" result="hardAlpha"/>
<feOffset/>
<feGaussianBlur stdDeviation="7"/>
<feComposite in2="hardAlpha" operator="out"/>
<feColorMatrix type="matrix" values="0 0 0 0 0 0 0 0 0 0 0 0 0 0 0 0 0 0 0.25 0"/>
<feBlend mode="normal" in2="BackgroundImageFix" result="effect1_dropShadow_1_226"/>
<feBlend mode="normal" in="SourceGraphic" in2="effect1_dropShadow_1_226" result="shape"/>
</filter>
<filter id="filter1_d_1_226" x="53" y="75" width="226" height="200.917" filterUnits="userSpaceOnUse" color-interpolation-filters="sRGB">
<feFlood flood-opacity="0" result="BackgroundImageFix"/>
<feColorMatrix in="SourceAlpha" type="matrix" values="0 0 0 0 0 0 0 0 0 0 0 0 0 0 0 0 0 0 127 0" result="hardAlpha"/>
<feOffset dy="4"/>
<feGaussianBlur stdDeviation="2"/>
<feComposite in2="hardAlpha" operator="out"/>
<feColorMatrix type="matrix" values="0 0 0 0 0 0 0 0 0 0 0 0 0 0 0 0 0 0 0.25 0"/>
<feBlend mode="normal" in2="BackgroundImageFix" result="effect1_dropShadow_1_226"/>
<feBlend mode="normal" in="SourceGraphic" in2="effect1_dropShadow_1_226" result="shape"/>
</filter>
</defs>
</svg>
