<svg width="334" height="334" viewBox="0 0 334 334" fill="none" xmlns="http://www.w3.org/2000/svg">
<g filter="url(#filter0_d_1_228)">
<circle cx="167" cy="167" r="153" fill="white"/>
</g>
<g filter="url(#filter1_d_1_228)">
<path d="M205.962 205.047C191.759 234.084 166.888 253.621 133.984 260.044C128.939 261.28 123.76 261.884 118.565 261.843C99.6279 261.843 82.2686 253.953 73.8414 241.028C62.5262 223.81 58.6756 187.308 95.9825 160.307C96.74 164.426 98.2865 170.075 99.3123 173.421C91.9888 178.862 85.9942 185.892 81.7793 193.984C74.8356 207.619 75.6089 221.238 83.8309 233.831C89.5122 242.322 98.5075 247.482 110.075 249.06C124.523 250.889 139.181 248.129 151.974 241.17C172.032 230.628 185.399 218.034 194.142 200.817C191.67 198.262 190.206 194.899 190.023 191.348C189.891 187.539 191.275 183.832 193.873 181.042C196.471 178.252 200.069 176.607 203.879 176.467H204.415C208.121 176.448 211.692 177.855 214.389 180.395C217.086 182.936 218.703 186.416 218.906 190.116C219.109 193.816 217.881 197.452 215.478 200.273C213.074 203.093 209.679 204.881 205.994 205.267L205.962 205.047ZM251.207 173.168C270.476 195.01 270.996 220.717 263.548 235.631C256.604 249.25 238.298 262.885 213.679 262.885C202.187 262.65 190.881 259.932 180.538 254.915C184.152 252.343 189.281 248.224 192.106 245.652C200.082 249.107 208.665 250.941 217.356 251.049C233.295 251.049 245.368 243.6 252.564 229.981C257.188 220.986 257.456 210.444 253.085 199.649C247.721 186.068 238.176 174.544 225.831 166.745C209.634 155.827 190.54 150.007 171.007 150.033H166.383C165.304 152.524 163.55 154.663 161.319 156.208C159.088 157.753 156.468 158.643 153.758 158.776H153.268C149.519 158.73 145.935 157.224 143.278 154.578C140.622 151.932 139.101 148.355 139.039 144.606C138.978 140.856 140.38 137.231 142.948 134.499C145.517 131.767 149.049 130.145 152.795 129.975H153.316C155.926 129.977 158.485 130.698 160.713 132.06C162.94 133.421 164.749 135.37 165.941 137.692H170.06C202.885 137.692 231.701 150.286 251.207 173.168ZM120.617 209.465C120.347 206.845 120.982 204.211 122.416 202.001C108.024 177.066 100.322 145.457 112.142 112.553C120.617 87.8236 141.953 71.1113 165.089 71.1113C189.77 71.1113 215.478 92.7158 218.555 134.347C214.705 133.068 209.087 131.19 205.709 130.496C204.873 116.877 193.369 82.9472 166.114 83.4522C156.346 83.7205 141.953 88.3444 134.552 97.8447C125.397 109.185 120.071 123.136 119.339 137.692C117.604 157.652 122.287 177.644 132.705 194.757C133.281 194.547 133.894 194.461 134.504 194.505H135.009C138.827 194.436 142.515 195.886 145.263 198.536C148.011 201.186 149.593 204.82 149.662 208.637C149.731 212.454 148.281 216.142 145.631 218.89C142.981 221.638 139.347 223.221 135.53 223.29H135.009C131.286 223.276 127.71 221.827 125.029 219.242C122.348 216.658 120.767 213.139 120.617 209.418V209.465Z" fill="#764ABC"/>
</g>
<defs>
<filter id="filter0_d_1_228" x="0" y="0" width="334" height="334" filterUnits="userSpaceOnUse" color-interpolation-filters="sRGB">
<feFlood flood-opacity="0" result="BackgroundImageFix"/>
<feColorMatrix in="SourceAlpha" type="matrix" values="0 0 0 0 0 0 0 0 0 0 0 0 0 0 0 0 0 0 127 0" result="hardAlpha"/>
<feOffset/>
<feGaussianBlur stdDeviation="7"/>
<feComposite in2="hardAlpha" operator="out"/>
<feColorMatrix type="matrix" values="0 0 0 0 0 0 0 0 0 0 0 0 0 0 0 0 0 0 0.25 0"/>
<feBlend mode="normal" in2="BackgroundImageFix" result="effect1_dropShadow_1_228"/>
<feBlend mode="normal" in="SourceGraphic" in2="effect1_dropShadow_1_228" result="shape"/>
</filter>
<filter id="filter1_d_1_228" x="62.0024" y="71.1113" width="209.995" height="199.773" filterUnits="userSpaceOnUse" color-interpolation-filters="sRGB">
<feFlood flood-opacity="0" result="BackgroundImageFix"/>
<feColorMatrix in="SourceAlpha" type="matrix" values="0 0 0 0 0 0 0 0 0 0 0 0 0 0 0 0 0 0 127 0" result="hardAlpha"/>
<feOffset dy="4"/>
<feGaussianBlur stdDeviation="2"/>
<feComposite in2="hardAlpha" operator="out"/>
<feColorMatrix type="matrix" values="0 0 0 0 0 0 0 0 0 0 0 0 0 0 0 0 0 0 0.25 0"/>
<feBlend mode="normal" in2="BackgroundImageFix" result="effect1_dropShadow_1_228"/>
<feBlend mode="normal" in="SourceGraphic" in2="effect1_dropShadow_1_228" result="shape"/>
</filter>
</defs>
</svg>
