<svg width="334" height="334" viewBox="0 0 334 334" fill="none" xmlns="http://www.w3.org/2000/svg">
<g filter="url(#filter0_d_1_240)">
<circle cx="167" cy="167" r="153" fill="white"/>
</g>
<g filter="url(#filter1_d_1_240)">
<g filter="url(#filter2_d_1_240)">
<path d="M236.506 177.807C230.461 177.815 224.497 179.198 219.064 181.85C217.364 179.027 216.05 175.989 215.159 172.816C214.648 170.329 214.529 167.777 214.809 165.254C215.396 162.477 216.159 159.74 217.091 157.059C217.057 156.708 216.672 155.051 212.801 154.996C208.931 154.941 205.596 155.732 205.239 156.756C204.567 158.627 204.027 160.543 203.623 162.49C200.42 170.393 196.477 177.975 191.846 185.136C189.252 180.883 188.185 175.873 188.821 170.932C189.409 168.155 190.171 165.418 191.104 162.737C191.069 162.387 190.684 160.73 186.814 160.675C182.943 160.62 179.609 161.411 179.251 162.435C178.894 163.459 178.44 165.872 177.636 168.169C176.831 170.465 167.44 191.447 164.979 196.858C163.714 199.608 162.621 201.849 161.851 203.362C161.814 203.46 161.768 203.554 161.713 203.644C161.026 204.943 160.661 205.651 160.661 205.651V205.686C160.132 206.634 159.568 207.514 159.286 207.514C158.795 205.55 158.818 203.492 159.355 201.54C160.73 194.259 164.099 182.943 164.064 182.551C164.064 182.338 164.697 180.372 161.885 179.354C161.233 179.044 160.501 178.943 159.789 179.067C159.077 179.19 158.421 179.53 157.911 180.042C157.664 180.042 157.492 180.64 157.492 180.64C157.492 180.64 160.551 167.914 151.655 167.914C148.191 168.611 144.901 169.994 141.978 171.981C139.056 173.968 136.561 176.519 134.639 179.485C132.247 180.784 127.153 183.562 121.701 186.552C119.638 187.714 117.479 188.876 115.479 189.99C115.341 189.852 115.197 189.674 115.059 189.536C104.231 178 84.3281 169.86 85.1875 154.426C85.5037 148.802 87.4356 134.034 123.406 116.097C153.009 101.509 176.57 105.551 180.647 114.516C186.484 127.317 168.024 151.084 137.438 154.529C134.054 155.215 130.559 155.132 127.211 154.286C123.864 153.44 120.749 151.852 118.098 149.641C116.483 147.881 116.235 147.777 115.637 148.128C114.654 148.657 115.286 150.239 115.637 151.153C116.804 153.265 118.382 155.121 120.278 156.612C122.175 158.104 124.351 159.2 126.678 159.836C138.711 162.436 151.257 161.193 162.545 156.282C181.108 149.111 195.545 129.174 191.31 112.474C187.054 95.5275 158.929 89.9381 132.309 99.4118C115.635 105.022 100.229 113.86 86.9681 125.42C72.3038 139.136 69.9869 151.05 70.9356 156.048C74.3731 173.772 98.7863 185.301 108.556 193.861C108.061 194.142 107.607 194.39 107.222 194.596C102.334 197.023 83.7025 206.765 79.0344 217.064C73.7612 228.751 79.88 237.104 83.9225 238.232C90.0138 239.69 96.4084 239.21 102.214 236.858C108.019 234.506 112.945 230.401 116.304 225.114C119.164 220.73 120.922 215.718 121.429 210.508C121.935 205.297 121.175 200.041 119.212 195.187C119.179 195.109 119.132 195.037 119.074 194.974L122.904 192.726C125.399 191.248 127.861 189.88 129.971 188.752C128.54 192.881 127.7 197.19 127.476 201.554C126.99 208.241 129.036 214.868 133.209 220.116C133.844 220.663 134.582 221.078 135.378 221.338C136.175 221.597 137.015 221.696 137.85 221.629C141.975 221.629 143.866 218.191 145.935 214.107C148.465 209.116 150.748 203.314 150.748 203.314C150.748 203.314 147.901 218.996 155.636 218.996C158.448 218.996 161.294 215.338 162.566 213.496V213.53C162.566 213.53 162.634 213.427 162.779 213.179L163.233 212.444V212.375C164.36 210.409 166.89 205.94 170.651 198.522C175.504 188.959 180.179 177.003 180.179 177.003C180.63 179.631 181.253 182.226 182.043 184.772C183.175 187.858 184.514 190.865 186.051 193.771C184.923 195.352 184.222 196.232 184.222 196.232L184.256 196.267C183.342 197.463 182.359 198.762 181.266 200.027C178.013 203.603 174.996 207.385 172.232 211.351C171.821 212.017 171.68 212.814 171.837 213.581C171.994 214.347 172.438 215.025 173.078 215.476C174.525 216.229 176.174 216.501 177.787 216.252C180.217 216.115 182.606 215.569 184.854 214.637C187.027 213.872 189.077 212.795 190.939 211.44C192.858 210.11 194.404 208.308 195.426 206.209C196.448 204.109 196.913 201.781 196.776 199.45C196.559 196.513 195.809 193.641 194.562 190.973C194.913 190.478 195.249 189.99 195.579 189.495C199.488 183.661 203.011 177.577 206.126 171.283C206.577 173.911 207.199 176.506 207.989 179.052C208.923 181.719 210.072 184.306 211.426 186.786C206.93 190.246 203.388 194.793 201.134 200C198.921 206.401 200.639 209.281 203.884 209.948C205.66 210.07 207.435 209.707 209.02 208.896C211.35 208.131 213.545 207.003 215.524 205.555C217.611 204.323 219.359 202.592 220.61 200.517C221.862 198.442 222.578 196.089 222.694 193.668C222.538 191.252 221.993 188.877 221.079 186.635C227.013 184.317 233.446 183.578 239.751 184.49C256.485 186.456 259.792 196.899 259.159 201.299C258.863 202.859 258.236 204.337 257.32 205.635C256.405 206.932 255.222 208.018 253.852 208.821C252.69 209.556 252.305 209.804 252.408 210.333C252.546 211.11 253.096 211.069 254.093 210.931C256.615 210.147 258.84 208.617 260.475 206.543C262.109 204.469 263.077 201.948 263.25 199.312C263.779 189 253.934 177.691 236.527 177.794L236.506 177.807ZM107.394 221.312C101.839 227.362 94.1044 229.645 90.7631 227.713C87.1744 225.651 88.5837 216.713 95.4037 210.306C99.4493 206.664 103.822 203.403 108.466 200.564C109.278 200.069 110.474 199.367 111.904 198.501L112.289 198.288L113.134 197.759C114.353 201.841 114.463 206.174 113.454 210.313C112.446 214.452 110.354 218.249 107.394 221.312ZM147.826 193.812C145.894 198.522 141.851 210.587 139.39 209.914C137.279 209.35 135.953 200.206 138.971 191.172C140.494 186.824 142.714 182.751 145.543 179.114C148.568 175.738 151.909 174.611 152.714 175.986C151.98 182.138 150.332 188.146 147.826 193.812ZM181.19 209.776C180.379 210.196 179.609 210.464 179.258 210.271C179.011 210.134 179.609 209.584 179.609 209.584C179.609 209.584 183.796 205.081 185.446 203.046C186.394 201.849 187.508 200.447 188.718 198.859V199.312C188.718 204.689 183.514 208.312 181.197 209.79L181.19 209.776ZM206.93 203.905C206.332 203.486 206.435 202.076 208.443 197.683C209.838 194.862 211.788 192.35 214.176 190.299C214.542 191.34 214.733 192.434 214.74 193.537C214.767 195.886 214.016 198.177 212.605 200.053C211.193 201.93 209.2 203.287 206.937 203.912L206.93 203.905Z" fill="#CD6799"/>
</g>
</g>
<defs>
<filter id="filter0_d_1_240" x="0" y="0" width="334" height="334" filterUnits="userSpaceOnUse" color-interpolation-filters="sRGB">
<feFlood flood-opacity="0" result="BackgroundImageFix"/>
<feColorMatrix in="SourceAlpha" type="matrix" values="0 0 0 0 0 0 0 0 0 0 0 0 0 0 0 0 0 0 127 0" result="hardAlpha"/>
<feOffset/>
<feGaussianBlur stdDeviation="7"/>
<feComposite in2="hardAlpha" operator="out"/>
<feColorMatrix type="matrix" values="0 0 0 0 0 0 0 0 0 0 0 0 0 0 0 0 0 0 0.25 0"/>
<feBlend mode="normal" in2="BackgroundImageFix" result="effect1_dropShadow_1_240"/>
<feBlend mode="normal" in="SourceGraphic" in2="effect1_dropShadow_1_240" result="shape"/>
</filter>
<filter id="filter1_d_1_240" x="53" y="57" width="228" height="228" filterUnits="userSpaceOnUse" color-interpolation-filters="sRGB">
<feFlood flood-opacity="0" result="BackgroundImageFix"/>
<feColorMatrix in="SourceAlpha" type="matrix" values="0 0 0 0 0 0 0 0 0 0 0 0 0 0 0 0 0 0 127 0" result="hardAlpha"/>
<feOffset dy="4"/>
<feGaussianBlur stdDeviation="2"/>
<feComposite in2="hardAlpha" operator="out"/>
<feColorMatrix type="matrix" values="0 0 0 0 0 0 0 0 0 0 0 0 0 0 0 0 0 0 0.25 0"/>
<feBlend mode="normal" in2="BackgroundImageFix" result="effect1_dropShadow_1_240"/>
<feBlend mode="normal" in="SourceGraphic" in2="effect1_dropShadow_1_240" result="shape"/>
</filter>
<filter id="filter2_d_1_240" x="66.7506" y="94.8206" width="200.52" height="152.237" filterUnits="userSpaceOnUse" color-interpolation-filters="sRGB">
<feFlood flood-opacity="0" result="BackgroundImageFix"/>
<feColorMatrix in="SourceAlpha" type="matrix" values="0 0 0 0 0 0 0 0 0 0 0 0 0 0 0 0 0 0 127 0" result="hardAlpha"/>
<feOffset dy="4"/>
<feGaussianBlur stdDeviation="2"/>
<feComposite in2="hardAlpha" operator="out"/>
<feColorMatrix type="matrix" values="0 0 0 0 0 0 0 0 0 0 0 0 0 0 0 0 0 0 0.25 0"/>
<feBlend mode="normal" in2="BackgroundImageFix" result="effect1_dropShadow_1_240"/>
<feBlend mode="normal" in="SourceGraphic" in2="effect1_dropShadow_1_240" result="shape"/>
</filter>
</defs>
</svg>
