<svg width="334" height="334" viewBox="0 0 334 334" fill="none" xmlns="http://www.w3.org/2000/svg">
<g filter="url(#filter0_d_1_222)">
<circle cx="167" cy="167" r="153" fill="white"/>
</g>
<g filter="url(#filter1_d_1_222)">
<path d="M139.394 61.4413C167.601 54.2 198.774 58.4198 223.65 73.7878C254.979 92.5421 275.431 128.019 275.951 164.538C277.096 201.421 257.893 237.992 227.032 258.049C192.685 281.179 145.171 282.064 110.095 260.08C74.3425 238.721 53.4738 195.639 58.8341 154.275C63.1536 110.567 96.8765 72.0166 139.394 61.4413Z" fill="#010101"/>
<path d="M135.075 79.31C188.366 57.9509 253.73 97.387 259.246 154.588C267.833 206.058 225.159 258.361 173.065 259.872C123.522 264.821 75.6436 222.78 74.2385 172.977C70.5435 132.655 97.0847 92.6463 135.075 79.31Z" fill="white"/>
<path d="M135.075 79.31C188.366 57.9509 253.73 97.387 259.246 154.588C267.833 206.058 225.159 258.361 173.065 259.872C123.522 264.821 75.6436 222.78 74.2385 172.977C70.5435 132.655 97.0847 92.6463 135.075 79.31Z" fill="white"/>
<path d="M140.435 161.464C164.322 141.928 187.689 121.715 212.097 102.753C199.294 122.445 186.128 141.876 173.326 161.568C162.345 161.62 151.364 161.62 140.435 161.464Z" fill="#010101"/>
<path d="M160.627 172.352C171.66 172.352 182.641 172.352 193.622 172.508C169.579 191.94 146.316 212.309 121.856 231.22C134.659 211.528 147.825 192.044 160.627 172.352Z" fill="#010101"/>
</g>
<defs>
<filter id="filter0_d_1_222" x="0" y="0" width="334" height="334" filterUnits="userSpaceOnUse" color-interpolation-filters="sRGB">
<feFlood flood-opacity="0" result="BackgroundImageFix"/>
<feColorMatrix in="SourceAlpha" type="matrix" values="0 0 0 0 0 0 0 0 0 0 0 0 0 0 0 0 0 0 127 0" result="hardAlpha"/>
<feOffset/>
<feGaussianBlur stdDeviation="7"/>
<feComposite in2="hardAlpha" operator="out"/>
<feColorMatrix type="matrix" values="0 0 0 0 0 0 0 0 0 0 0 0 0 0 0 0 0 0 0.25 0"/>
<feBlend mode="normal" in2="BackgroundImageFix" result="effect1_dropShadow_1_222"/>
<feBlend mode="normal" in="SourceGraphic" in2="effect1_dropShadow_1_222" result="shape"/>
</filter>
<filter id="filter1_d_1_222" x="54" y="58" width="226" height="226" filterUnits="userSpaceOnUse" color-interpolation-filters="sRGB">
<feFlood flood-opacity="0" result="BackgroundImageFix"/>
<feColorMatrix in="SourceAlpha" type="matrix" values="0 0 0 0 0 0 0 0 0 0 0 0 0 0 0 0 0 0 127 0" result="hardAlpha"/>
<feOffset dy="4"/>
<feGaussianBlur stdDeviation="2"/>
<feComposite in2="hardAlpha" operator="out"/>
<feColorMatrix type="matrix" values="0 0 0 0 0 0 0 0 0 0 0 0 0 0 0 0 0 0 0.25 0"/>
<feBlend mode="normal" in2="BackgroundImageFix" result="effect1_dropShadow_1_222"/>
<feBlend mode="normal" in="SourceGraphic" in2="effect1_dropShadow_1_222" result="shape"/>
</filter>
</defs>
</svg>
