<svg width="334" height="334" viewBox="0 0 334 334" fill="none" xmlns="http://www.w3.org/2000/svg">
<g filter="url(#filter0_d_1_232)">
<circle cx="167" cy="167" r="153" fill="white"/>
</g>
<g filter="url(#filter1_d_1_232)">
<path d="M90.1328 250.45L84.0071 87.0168C83.8048 81.6193 87.9381 77.0449 93.322 76.708L232.154 68.0197C237.634 67.6768 242.354 71.847 242.697 77.3343C242.71 77.541 242.716 77.7481 242.716 77.9553V256.045C242.716 261.543 238.265 266 232.774 266C232.626 266 232.477 265.997 232.328 265.99L99.6218 260.022C94.4534 259.79 90.3269 255.627 90.1328 250.45V250.45Z" fill="#FF4785"/>
<mask id="mask0_1_232" style="mask-type:luminance" maskUnits="userSpaceOnUse" x="84" y="68" width="159" height="198">
<path d="M90.1328 250.45L84.0071 87.0168C83.8048 81.6193 87.9381 77.0449 93.322 76.708L232.154 68.0197C237.634 67.6768 242.354 71.847 242.697 77.3343C242.71 77.541 242.716 77.7481 242.716 77.9553V256.045C242.716 261.543 238.265 266 232.774 266C232.626 266 232.477 265.997 232.328 265.99L99.6218 260.022C94.4534 259.79 90.3269 255.627 90.1328 250.45V250.45Z" fill="white"/>
</mask>
<g mask="url(#mask0_1_232)">
<path d="M201.2 92.3374L202.148 69.5L221.214 68L222.036 91.5514C222.064 92.3711 221.424 93.0587 220.605 93.0873C220.255 93.0996 219.911 92.9871 219.636 92.7698L212.283 86.9703L203.578 93.5822C202.926 94.0778 201.995 93.9499 201.5 93.2965C201.292 93.0215 201.186 92.6823 201.2 92.3374ZM176.817 142.629C176.817 146.502 202.871 144.646 206.369 141.925C206.369 115.551 192.235 101.691 166.354 101.691C140.473 101.691 125.972 115.766 125.972 136.879C125.972 173.65 175.532 174.354 175.532 194.411C175.532 200.041 172.778 203.383 166.721 203.383C158.828 203.383 155.708 199.347 156.075 185.624C156.075 182.647 125.972 181.719 125.054 185.624C122.717 218.88 143.41 228.473 167.088 228.473C190.033 228.473 208.021 216.227 208.021 194.059C208.021 154.649 157.727 155.704 157.727 136.175C157.727 128.258 163.601 127.202 167.088 127.202C170.759 127.202 177.367 127.85 176.817 142.629Z" fill="white"/>
</g>
</g>
<defs>
<filter id="filter0_d_1_232" x="0" y="0" width="334" height="334" filterUnits="userSpaceOnUse" color-interpolation-filters="sRGB">
<feFlood flood-opacity="0" result="BackgroundImageFix"/>
<feColorMatrix in="SourceAlpha" type="matrix" values="0 0 0 0 0 0 0 0 0 0 0 0 0 0 0 0 0 0 127 0" result="hardAlpha"/>
<feOffset/>
<feGaussianBlur stdDeviation="7"/>
<feComposite in2="hardAlpha" operator="out"/>
<feColorMatrix type="matrix" values="0 0 0 0 0 0 0 0 0 0 0 0 0 0 0 0 0 0 0.25 0"/>
<feBlend mode="normal" in2="BackgroundImageFix" result="effect1_dropShadow_1_232"/>
<feBlend mode="normal" in="SourceGraphic" in2="effect1_dropShadow_1_232" result="shape"/>
</filter>
<filter id="filter1_d_1_232" x="80" y="68" width="166.716" height="206" filterUnits="userSpaceOnUse" color-interpolation-filters="sRGB">
<feFlood flood-opacity="0" result="BackgroundImageFix"/>
<feColorMatrix in="SourceAlpha" type="matrix" values="0 0 0 0 0 0 0 0 0 0 0 0 0 0 0 0 0 0 127 0" result="hardAlpha"/>
<feOffset dy="4"/>
<feGaussianBlur stdDeviation="2"/>
<feComposite in2="hardAlpha" operator="out"/>
<feColorMatrix type="matrix" values="0 0 0 0 0 0 0 0 0 0 0 0 0 0 0 0 0 0 0.25 0"/>
<feBlend mode="normal" in2="BackgroundImageFix" result="effect1_dropShadow_1_232"/>
<feBlend mode="normal" in="SourceGraphic" in2="effect1_dropShadow_1_232" result="shape"/>
</filter>
</defs>
</svg>
