<svg width="334" height="334" viewBox="0 0 334 334" fill="none" xmlns="http://www.w3.org/2000/svg">
<g filter="url(#filter0_d_1_236)">
<circle cx="167" cy="167" r="153" fill="white"/>
</g>
<g filter="url(#filter1_d_1_236)">
<path d="M167 102C137.933 102 119.767 116.518 112.5 145.553C123.4 131.035 136.117 125.591 150.65 129.221C158.942 131.292 164.869 137.301 171.429 143.953C182.116 154.789 194.485 167.33 221.5 167.33C250.567 167.33 268.733 152.812 276 123.777C265.1 138.294 252.383 143.739 237.85 140.109C229.558 138.038 223.631 132.029 217.071 125.377C206.384 114.541 194.015 102 167 102ZM112.5 167.33C83.4333 167.33 65.2667 181.848 58 210.883C68.9 196.365 81.6167 190.921 96.15 194.551C104.442 196.621 110.369 202.631 116.929 209.283C127.616 220.118 139.985 232.66 167 232.66C196.067 232.66 214.233 218.142 221.5 189.106C210.6 203.624 197.883 209.068 183.35 205.439C175.058 203.368 169.131 197.359 162.571 190.707C151.884 179.871 139.515 167.33 112.5 167.33Z" fill="url(#paint0_linear_1_236)"/>
</g>
<defs>
<filter id="filter0_d_1_236" x="0" y="0" width="334" height="334" filterUnits="userSpaceOnUse" color-interpolation-filters="sRGB">
<feFlood flood-opacity="0" result="BackgroundImageFix"/>
<feColorMatrix in="SourceAlpha" type="matrix" values="0 0 0 0 0 0 0 0 0 0 0 0 0 0 0 0 0 0 127 0" result="hardAlpha"/>
<feOffset/>
<feGaussianBlur stdDeviation="7"/>
<feComposite in2="hardAlpha" operator="out"/>
<feColorMatrix type="matrix" values="0 0 0 0 0 0 0 0 0 0 0 0 0 0 0 0 0 0 0.25 0"/>
<feBlend mode="normal" in2="BackgroundImageFix" result="effect1_dropShadow_1_236"/>
<feBlend mode="normal" in="SourceGraphic" in2="effect1_dropShadow_1_236" result="shape"/>
</filter>
<filter id="filter1_d_1_236" x="54" y="102" width="226" height="138.66" filterUnits="userSpaceOnUse" color-interpolation-filters="sRGB">
<feFlood flood-opacity="0" result="BackgroundImageFix"/>
<feColorMatrix in="SourceAlpha" type="matrix" values="0 0 0 0 0 0 0 0 0 0 0 0 0 0 0 0 0 0 127 0" result="hardAlpha"/>
<feOffset dy="4"/>
<feGaussianBlur stdDeviation="2"/>
<feComposite in2="hardAlpha" operator="out"/>
<feColorMatrix type="matrix" values="0 0 0 0 0 0 0 0 0 0 0 0 0 0 0 0 0 0 0.25 0"/>
<feBlend mode="normal" in2="BackgroundImageFix" result="effect1_dropShadow_1_236"/>
<feBlend mode="normal" in="SourceGraphic" in2="effect1_dropShadow_1_236" result="shape"/>
</filter>
<linearGradient id="paint0_linear_1_236" x1="-1492.22" y1="6540.91" x2="51911.7" y2="25083.8" gradientUnits="userSpaceOnUse">
<stop stop-color="#2298BD"/>
<stop offset="1" stop-color="#0ED7B5"/>
</linearGradient>
</defs>
</svg>
